<svg width="330" height="204" viewBox="0 0 330 204" fill="none" xmlns="http://www.w3.org/2000/svg">
<path d="M18.4487 204L123.681 203.448L151.73 203.44L161.023 203.437L189.127 203.428L317.521 203.393C317.521 203.393 346.889 165.424 315.52 129.363C282.994 91.9728 267.18 122.423 257.183 69.7928C232.017 -62.6843 -16.7896 14.4213 48.4703 127.154C71.9683 167.745 2.21663 146.171 18.4487 204Z" fill="#EBF3FA"/>
<path d="M115.259 176.351L114.69 176.036C114.082 175.702 113.858 174.931 114.191 174.318L116.805 169.504C117.138 168.892 117.903 168.666 118.511 169.002L119.326 169.452C119.445 169.517 119.489 169.669 119.424 169.788C119.359 169.908 119.209 169.953 119.09 169.887L118.275 169.436C117.905 169.232 117.44 169.369 117.237 169.743L114.622 174.556C114.42 174.928 114.556 175.398 114.926 175.602L115.496 175.917C115.865 176.121 116.33 175.984 116.533 175.61L118.268 172.415C118.333 172.296 118.483 172.251 118.602 172.317C118.721 172.383 118.765 172.533 118.7 172.654L116.964 175.849C116.631 176.461 115.867 176.687 115.259 176.351Z" fill="#AFCDFB"/>
<path d="M112.833 181.406L111.813 180.843C110.866 180.32 110.547 179.063 111.103 178.039L115.034 170.803C115.099 170.683 115.249 170.639 115.368 170.704C115.486 170.77 115.531 170.92 115.466 171.041L111.535 178.277C111.109 179.06 111.34 180.017 112.049 180.408L113.069 180.971C113.778 181.363 114.702 181.044 115.128 180.261L119.605 172.018C120.031 171.235 119.799 170.278 119.09 169.887C118.971 169.822 118.927 169.67 118.992 169.55C119.057 169.431 119.208 169.386 119.326 169.452C120.273 169.975 120.592 171.232 120.037 172.256L115.559 180.499C115.003 181.522 113.781 181.929 112.833 181.406Z" fill="#AFCDFB"/>
<path d="M211.098 149.579H85.8888C82.8106 149.579 80.3151 147.064 80.3151 143.96V38.004C80.3151 34.9005 82.8106 32.385 85.8888 32.385H211.098C214.176 32.385 216.672 34.9005 216.672 38.004V143.96C216.672 147.064 214.176 149.579 211.098 149.579ZM157.375 92.7698C156.853 92.7698 156.429 93.1971 156.429 93.7241C156.429 94.2511 156.853 94.6784 157.375 94.6784H176.682C177.206 94.6784 177.63 94.2511 177.63 93.7241C177.63 93.1971 177.206 92.7698 176.682 92.7698H157.375ZM139.77 92.7698C139.246 92.7698 138.823 93.1971 138.823 93.7241C138.823 94.2511 139.246 94.6784 139.77 94.6784H153.861C154.383 94.6784 154.807 94.2511 154.807 93.7241C154.807 93.1971 154.383 92.7698 153.861 92.7698H139.77ZM91.1213 55.7072V94.6784H129.774V55.7072H91.1213ZM181.453 86.8492C180.931 86.8492 180.507 87.2764 180.507 87.8035C180.507 88.3305 180.931 88.7589 181.453 88.7589H191.312C191.835 88.7589 192.258 88.3305 192.258 87.8035C192.258 87.2764 191.835 86.8492 191.312 86.8492H181.453ZM139.77 86.8492C139.246 86.8492 138.823 87.2764 138.823 87.8035C138.823 88.3305 139.246 88.7589 139.77 88.7589H177.114C177.637 88.7589 178.061 88.3305 178.061 87.8035C178.061 87.2764 177.637 86.8492 177.114 86.8492H139.77ZM164.129 79.081C163.606 79.081 163.182 79.5082 163.182 80.0353C163.182 80.5623 163.606 80.9896 164.129 80.9896H195.399C195.922 80.9896 196.346 80.5623 196.346 80.0353C196.346 79.5082 195.922 79.081 195.399 79.081H164.129ZM139.77 79.081C139.246 79.081 138.823 79.5082 138.823 80.0353C138.823 80.5623 139.246 80.9896 139.77 80.9896H158.889C159.413 80.9896 159.836 80.5623 159.836 80.0353C159.836 79.5082 159.413 79.081 158.889 79.081H139.77ZM181.453 73.9621C180.931 73.9621 180.507 74.3893 180.507 74.9164C180.507 75.4434 180.931 75.8707 181.453 75.8707H191.312C191.835 75.8707 192.258 75.4434 192.258 74.9164C192.258 74.3893 191.835 73.9621 191.312 73.9621H181.453ZM157.375 73.9621C156.853 73.9621 156.429 74.3893 156.429 74.9164C156.429 75.4434 156.853 75.8707 157.375 75.8707H176.682C177.206 75.8707 177.63 75.4434 177.63 74.9164C177.63 74.3893 177.206 73.9621 176.682 73.9621H157.375ZM139.77 73.9621C139.246 73.9621 138.823 74.3893 138.823 74.9164C138.823 75.4434 139.246 75.8707 139.77 75.8707H153.861C154.383 75.8707 154.807 75.4434 154.807 74.9164C154.807 74.3893 154.383 73.9621 153.861 73.9621H139.77ZM181.453 68.0414C180.931 68.0414 180.507 68.4687 180.507 68.9957C180.507 69.5228 180.931 69.95 181.453 69.95H191.312C191.835 69.95 192.258 69.5228 192.258 68.9957C192.258 68.4687 191.835 68.0414 191.312 68.0414H181.453ZM139.77 68.0414C139.246 68.0414 138.823 68.4687 138.823 68.9957C138.823 69.5228 139.246 69.95 139.77 69.95H177.114C177.637 69.95 178.061 69.5228 178.061 68.9957C178.061 68.4687 177.637 68.0414 177.114 68.0414H139.77ZM140.284 55.6673C139.477 55.6673 138.823 56.3269 138.823 57.1392C138.823 57.9526 139.477 58.6123 140.284 58.6123H171.029C171.836 58.6123 172.489 57.9526 172.489 57.1392C172.489 56.3269 171.836 55.6673 171.029 55.6673H140.284ZM177.049 53.6918C176.242 53.6918 175.588 54.3514 175.588 55.1649C175.588 55.9783 176.242 56.6368 177.049 56.6368H207.793C208.6 56.6368 209.255 55.9783 209.255 55.1649C209.255 54.3514 208.6 53.6918 207.793 53.6918H177.049Z" fill="#F7FAFD"/>
<path d="M216.672 45.3895H80.3151V36.5802C80.3151 34.2631 82.1781 32.385 84.4761 32.385H212.511C214.809 32.385 216.672 34.2631 216.672 36.5802V45.3895Z" fill="#699DEE"/>
<path d="M85.8294 38.808C85.8294 37.95 86.5198 37.2539 87.3715 37.2539C88.2232 37.2539 88.9136 37.95 88.9136 38.808C88.9136 39.6672 88.2232 40.3633 87.3715 40.3633C86.5198 40.3633 85.8294 39.6672 85.8294 38.808Z" fill="#DDE7FE"/>
<path d="M92.3015 38.808C92.3015 37.95 92.9921 37.2539 93.8438 37.2539C94.6955 37.2539 95.386 37.95 95.386 38.808C95.386 39.6672 94.6955 40.3633 93.8438 40.3633C92.9921 40.3633 92.3015 39.6672 92.3015 38.808Z" fill="#DDE7FE"/>
<path d="M98.7739 38.808C98.7739 37.95 99.4643 37.2539 100.315 37.2539C101.168 37.2539 101.858 37.95 101.858 38.808C101.858 39.6672 101.168 40.3633 100.315 40.3633C99.4643 40.3633 98.7739 39.6672 98.7739 38.808Z" fill="#DDE7FE"/>
<path d="M91.1212 94.6785H129.774V55.7073H91.1212V94.6785Z" fill="#E2EDFC"/>
<path d="M171.029 58.6123H140.284C139.477 58.6123 138.823 57.9526 138.823 57.1392C138.823 56.327 139.477 55.6673 140.284 55.6673H171.029C171.836 55.6673 172.489 56.327 172.489 57.1392C172.489 57.9526 171.836 58.6123 171.029 58.6123Z" fill="#B9CAF7"/>
<path d="M207.793 56.6368H177.049C176.242 56.6368 175.588 55.9783 175.588 55.1649C175.588 54.3515 176.242 53.6918 177.049 53.6918H207.793C208.6 53.6918 209.254 54.3515 209.254 55.1649C209.254 55.9783 208.6 56.6368 207.793 56.6368Z" fill="#B9CAF7"/>
<path d="M177.114 69.9501H139.77C139.246 69.9501 138.823 69.5226 138.823 68.9954C138.823 68.4681 139.246 68.0406 139.77 68.0406H177.114C177.637 68.0406 178.061 68.4681 178.061 68.9954C178.061 69.5226 177.637 69.9501 177.114 69.9501Z" fill="#E5EEFC"/>
<path d="M191.312 69.9501H181.453C180.931 69.9501 180.507 69.5226 180.507 68.9954C180.507 68.4681 180.931 68.0406 181.453 68.0406H191.312C191.834 68.0406 192.258 68.4681 192.258 68.9954C192.258 69.5226 191.834 69.9501 191.312 69.9501Z" fill="#E5EEFC"/>
<path d="M153.861 75.8706H139.77C139.246 75.8706 138.823 75.4431 138.823 74.9158C138.823 74.3886 139.246 73.9611 139.77 73.9611H153.861C154.383 73.9611 154.807 74.3886 154.807 74.9158C154.807 75.4431 154.383 75.8706 153.861 75.8706Z" fill="#E5EEFC"/>
<path d="M176.682 75.8706H157.375C156.852 75.8706 156.429 75.4431 156.429 74.9158C156.429 74.3886 156.852 73.9611 157.375 73.9611H176.682C177.206 73.9611 177.63 74.3886 177.63 74.9158C177.63 75.4431 177.206 75.8706 176.682 75.8706Z" fill="#E5EEFC"/>
<path d="M191.312 75.8706H181.453C180.931 75.8706 180.507 75.4431 180.507 74.9158C180.507 74.3886 180.931 73.9611 181.453 73.9611H191.312C191.834 73.9611 192.258 74.3886 192.258 74.9158C192.258 75.4431 191.834 75.8706 191.312 75.8706Z" fill="#E5EEFC"/>
<path d="M158.889 80.9896H139.77C139.246 80.9896 138.823 80.5622 138.823 80.0349C138.823 79.5076 139.246 79.0801 139.77 79.0801H158.889C159.413 79.0801 159.836 79.5076 159.836 80.0349C159.836 80.5622 159.413 80.9896 158.889 80.9896Z" fill="#E5EEFC"/>
<path d="M195.4 80.9896H164.129C163.606 80.9896 163.182 80.5622 163.182 80.0349C163.182 79.5076 163.606 79.0801 164.129 79.0801H195.4C195.922 79.0801 196.346 79.5076 196.346 80.0349C196.346 80.5622 195.922 80.9896 195.4 80.9896Z" fill="#E5EEFC"/>
<path d="M177.114 88.759H139.77C139.246 88.759 138.823 88.3304 138.823 87.8031C138.823 87.2758 139.246 86.8484 139.77 86.8484H177.114C177.637 86.8484 178.061 87.2758 178.061 87.8031C178.061 88.3304 177.637 88.759 177.114 88.759Z" fill="#E5EEFC"/>
<path d="M191.312 88.759H181.453C180.931 88.759 180.507 88.3304 180.507 87.8031C180.507 87.2758 180.931 86.8484 181.453 86.8484H191.312C191.834 86.8484 192.258 87.2758 192.258 87.8031C192.258 88.3304 191.834 88.759 191.312 88.759Z" fill="#E5EEFC"/>
<path d="M153.861 94.6785H139.77C139.246 94.6785 138.823 94.251 138.823 93.7237C138.823 93.1964 139.246 92.769 139.77 92.769H153.861C154.383 92.769 154.807 93.1964 154.807 93.7237C154.807 94.251 154.383 94.6785 153.861 94.6785Z" fill="#E5EEFC"/>
<path d="M176.682 94.6785H157.375C156.852 94.6785 156.429 94.251 156.429 93.7237C156.429 93.1964 156.852 92.769 157.375 92.769H176.682C177.206 92.769 177.63 93.1964 177.63 93.7237C177.63 94.251 177.206 94.6785 176.682 94.6785Z" fill="#E5EEFC"/>
<path d="M114.614 76.5915L110.378 66.7069L106.176 76.5915H114.614ZM108.452 61.5176H112.444L123.228 86.4067H118.676L116.19 80.4403H104.6L102.079 86.4067H97.6668L108.452 61.5176Z" fill="#BDD1F9"/>
<path d="M112.713 106.732H91.1212V102.529H112.713V106.732Z" fill="#F99746"/>
<path d="M112.713 110.934H91.1212V106.732H112.713V110.934Z" fill="#ED7D2B"/>
<path d="M112.713 115.136H91.1212V110.934H112.713V115.136Z" fill="#474FEA"/>
<path d="M128.622 104.908H116.742C116.245 104.908 115.841 104.502 115.841 104C115.841 103.499 116.245 103.093 116.742 103.093H128.622C129.119 103.093 129.522 103.499 129.522 104C129.522 104.502 129.119 104.908 128.622 104.908Z" fill="#BDD1F9"/>
<path d="M124.62 108.107H116.742C116.245 108.107 115.841 107.7 115.841 107.199C115.841 106.697 116.245 106.291 116.742 106.291H124.62C125.117 106.291 125.52 106.697 125.52 107.199C125.52 107.7 125.117 108.107 124.62 108.107Z" fill="#BDD1F9"/>
<path d="M112.713 132.845H91.1212V124.258H112.713V132.845Z" fill="#F99746"/>
<path d="M112.713 136.867H91.1212V130.726H112.713V136.867Z" fill="#B5453C"/>
<path d="M91.1212 124.258L98.8679 130.818L91.1212 136.867V124.258Z" fill="#474FEA"/>
<path d="M128.622 126.637H116.742C116.245 126.637 115.841 126.231 115.841 125.73C115.841 125.228 116.245 124.822 116.742 124.822H128.622C129.119 124.822 129.522 125.228 129.522 125.73C129.522 126.231 129.119 126.637 128.622 126.637Z" fill="#BDD1F9"/>
<path d="M124.62 129.837H116.742C116.245 129.837 115.841 129.431 115.841 128.929C115.841 128.428 116.245 128.02 116.742 128.02H124.62C125.117 128.02 125.52 128.428 125.52 128.929C125.52 129.431 125.117 129.837 124.62 129.837Z" fill="#BDD1F9"/>
<path d="M218.048 42.9985C218.048 42.9985 218.61 49.7549 217.084 49.6528C215.556 49.5507 212.541 46.5763 206.458 47.0599C200.374 47.5435 192.93 48.8851 188.43 40.8575C183.931 32.8288 194.185 30.5187 194.185 30.5187L218.048 42.9985Z" fill="#233862"/>
<path d="M205.115 42.5032L235.771 45.0444L236.408 43.6699L207.018 21.7962L177.33 18.2983L176.759 19.5296L205.115 42.5032Z" fill="#2B478B"/>
<path d="M225.978 65.7808C225.797 65.1446 225.139 64.776 224.508 64.958C223.877 65.1411 223.513 65.8043 223.693 66.4405C223.873 67.0767 224.531 67.444 225.162 67.2633C225.793 67.0802 226.159 66.417 225.978 65.7808Z" fill="#F99746"/>
<path d="M224.956 66.1128C226.186 66.0166 226.473 77.2968 226.473 77.2968C226.473 77.2968 225.671 77.6771 225.278 77.5879C224.883 77.4987 224.681 75.9751 224.681 75.9751L224.644 77.5726C224.644 77.5726 223.295 77.6196 222.828 77.2886C222.828 77.2886 223.011 66.2666 224.956 66.1128Z" fill="#F99746"/>
<path d="M225.356 66.3677L225.134 41.7226L224.976 41.6029L208.963 29.6607L208.388 30.4448L224.241 42.2685L224.6 66.3254L225.356 66.3677Z" fill="#F99746"/>
<path d="M246.016 182.638H178.67V156.839H246.241C251.702 156.839 256.13 161.303 256.13 166.809V172.441C256.13 178.073 251.602 182.638 246.016 182.638Z" fill="#FCECDB"/>
<path d="M313.902 167.454V171.334C313.902 173.408 313.385 175.351 312.482 177.02C310.667 180.38 307.292 182.637 303.428 182.637H176.595C175.756 182.637 175.076 181.903 175.076 180.999V180.418C175.076 179.513 175.756 178.78 176.595 178.78H253.911C254.324 178.236 254.689 177.647 254.996 177.02C255.72 175.548 256.13 173.87 256.13 172.088V167.155C256.13 166.247 256.022 165.366 255.817 164.529C255.47 163.108 254.85 161.808 254.024 160.697H176.595C175.756 160.697 175.076 159.964 175.076 159.058V158.478C175.076 157.573 175.756 156.839 176.595 156.839H304.067C308.559 156.839 312.347 160.088 313.523 164.529C313.771 165.458 313.902 166.44 313.902 167.454Z" fill="#699DEE"/>
<path d="M313.523 164.529H255.817C255.47 163.108 254.85 161.808 254.024 160.697H176.595C175.756 160.697 175.076 159.964 175.076 159.058V158.478C175.076 157.573 175.756 156.839 176.595 156.839H304.067C308.559 156.839 312.347 160.088 313.523 164.529Z" fill="#548EE2"/>
<path d="M178.67 169.738L188.061 170.172L178.67 170.433V169.738Z" fill="#F4D2B8"/>
<path d="M178.67 173.786L201.012 174.22L178.67 174.481V173.786Z" fill="#F4D2B8"/>
<path d="M168.829 202.65H234.94V182.584H168.245C163.293 182.584 159.277 186.633 159.277 191.626V193.021C159.277 198.339 163.554 202.65 168.829 202.65Z" fill="#F99746"/>
<path d="M231.755 202.65H307.104V182.584H231.548C226.512 182.584 222.43 186.699 222.43 191.777V193.248C222.43 198.441 226.605 202.65 231.755 202.65Z" fill="#FCECDB"/>
<path d="M217.452 202.65H309.646C310.411 202.65 311.031 202.026 311.031 201.254V201.045C311.031 200.274 310.411 199.65 309.646 199.65H217.452C216.687 199.65 216.066 200.274 216.066 201.045V201.254C216.066 202.026 216.687 202.65 217.452 202.65Z" fill="#F99746"/>
<path d="M217.452 185.584H309.646C310.411 185.584 311.031 184.96 311.031 184.189V183.98C311.031 183.209 310.411 182.584 309.646 182.584H217.452C216.687 182.584 216.066 183.209 216.066 183.98V184.189C216.066 184.96 216.687 185.584 217.452 185.584Z" fill="#F99746"/>
<path d="M307.104 192.617L296.838 192.954L307.104 193.158V192.617Z" fill="#F4D2B8"/>
<path d="M307.103 187.998L282.681 188.337L307.103 188.54V187.998Z" fill="#F4D2B8"/>
<path d="M282.932 188.269C282.932 188.269 283.979 189.132 284.326 190.548C284.386 190.796 284.426 191.062 284.434 191.342C284.492 193.225 284.434 197.487 284.434 197.487L287.524 195.355L290.606 197.487V191.71C290.606 190.618 290.342 189.555 289.851 188.86C289.613 188.522 289.324 188.269 288.997 188.269H282.932Z" fill="#699DEE"/>
<path d="M282.932 188.269C282.932 188.269 283.979 189.132 284.326 190.548L290.519 190.633C290.519 190.633 290.276 188.603 288.997 188.269H282.932Z" fill="#568CDB"/>
<path d="M226.745 156.893H161.676V127.411H226.983C232.756 127.411 237.437 132.13 237.437 137.952V146.113C237.437 152.067 232.65 156.893 226.745 156.893Z" fill="#FCECDB"/>
<path d="M237.475 138.85V145.195C237.458 147.905 236.213 150.257 234.383 151.514C233.481 152.13 232.439 152.483 231.332 152.483H159.681C158.842 152.483 158.161 153.303 158.161 154.314V155.063C158.161 156.074 158.842 156.893 159.681 156.893H283.46C287.012 156.893 290.15 154.767 292.046 151.514C293.241 149.463 293.943 146.966 293.943 144.27V139.264C293.943 137.416 293.592 135.667 292.965 134.109C291.374 130.145 288.002 127.411 284.1 127.411H159.681C158.842 127.411 158.161 128.229 158.161 129.241V129.989C158.161 131 158.842 131.82 159.681 131.82H231.551C233.27 131.82 234.824 132.7 235.91 134.109C236.872 135.358 237.465 137.02 237.475 138.85Z" fill="#AFCDFB"/>
<path d="M158.161 154.314V155.063C158.161 156.074 158.842 156.893 159.681 156.893H283.46C287.012 156.893 290.15 154.767 292.046 151.514H234.383C233.482 152.13 232.44 152.483 231.332 152.483H159.681C158.842 152.483 158.161 153.303 158.161 154.314Z" fill="#A4C4F4"/>
<path d="M161.676 142.151L170.862 142.647L161.676 142.946V142.151Z" fill="#F4D2B8"/>
<path d="M161.676 135.367L183.528 135.862L161.676 136.161V135.367Z" fill="#F4D2B8"/>
<path d="M183.304 135.764C183.304 135.764 181.862 136.699 181.384 138.236C181.299 138.504 181.246 138.792 181.234 139.095C181.155 141.137 181.234 145.757 181.234 145.757L176.976 143.447L172.729 145.757V139.495C172.729 138.311 173.093 137.158 173.77 136.405C174.098 136.038 174.496 135.764 174.947 135.764H183.304Z" fill="#F99746"/>
<path d="M183.304 135.764C183.304 135.764 181.862 136.699 181.384 138.236L172.851 138.327C172.851 138.327 173.185 136.126 174.947 135.764H183.304Z" fill="#ED7D2B"/>
<path d="M74.5363 154.285C74.5363 154.285 87.8744 160.145 90.2955 160.038C92.7166 159.931 107.636 155.457 107.636 155.457L107.255 158.044C107.255 158.044 95.7423 164.72 91.7171 165.099C87.7542 165.471 74.2039 161.513 72.8956 160.678C71.5874 159.842 70.7345 155.131 74.5363 154.285Z" fill="#ED985F"/>
<path d="M72.5323 132.732C72.5323 132.732 67.6118 131.789 65.1613 133.593C60.7221 136.862 60.4836 148.131 58.8199 149.809C57.1561 151.488 53.1455 150.772 52.7885 159.458C52.4315 168.143 54.3852 168.869 52.0584 172.747C49.7316 176.624 53.0429 180.504 53.0429 180.504C53.0429 180.504 51.6866 178.364 52.2678 176.82C52.2678 176.82 52.8324 180.228 54.9807 181.028C57.129 181.827 57.4468 182.413 57.7899 183.585C57.7899 183.585 76.1175 174.116 76.1374 167.4C76.1574 160.685 79.744 154.032 77.9828 151.122C77.9828 151.122 78.7672 152.366 78.8634 153.751C78.8634 153.751 79.9202 151.71 78.0884 149.809C76.2568 147.909 80.2372 143.976 79.6478 139.421C79.2432 136.294 77.0669 132.868 72.5323 132.732Z" fill="#233862"/>
<path d="M76.1574 160.685C74.986 161.504 73.5171 162.179 71.6733 162.608C64.7613 164.219 62.1125 158.329 61.1177 154.285C62.0604 153.742 62.9473 153.622 63.4595 153.56C63.9591 153.501 64.4845 153.461 64.9195 153.44C65.6957 152.84 66.8522 150.387 67.108 146.578L67.4332 146.666L72.8804 148.17C72.8804 148.17 72.6309 149.915 72.5086 151.565C72.414 152.856 72.3991 154.091 72.6418 154.393C73.0668 154.486 73.322 154.547 73.322 154.547L73.3247 154.551C73.3978 154.672 74.9782 157.293 76.1574 160.685Z" fill="#FFB27D"/>
<path d="M72.8811 148.171C72.8811 148.171 72.6307 149.915 72.5093 151.567C69.4229 151.255 67.9906 148.293 67.433 146.667L72.8811 148.171Z" fill="#ED985F"/>
<path d="M73.8029 149.809C73.8029 149.809 66.4769 149.402 66.7988 144.807C67.1207 140.211 66.3921 137.063 71.0831 137.129C75.7742 137.195 76.5591 139.013 76.8218 140.574C77.0844 142.134 75.7168 149.797 73.8029 149.809Z" fill="#FFB27D"/>
<path d="M76.785 138.003C75.7524 136.538 74.8761 136.78 74.3677 137.162C70.5261 134.656 67.7161 137.746 67.7161 137.746C66.9921 141.008 64.4995 142.727 64.4995 142.727C64.4995 142.727 65.774 143.653 68.9051 143.079C69.8615 142.903 70.7479 142.29 71.5186 141.526C70.1248 143.539 68.3235 144.931 68.3235 144.931C72.1176 143.485 73.9588 138.442 74.1444 137.908C74.5623 138.345 75.3802 139.287 75.5874 140.168C75.8688 141.364 77.0831 143.235 77.7853 143.203C77.7853 143.203 78.3336 140.198 76.785 138.003Z" fill="#233862"/>
<path d="M59.0312 175.701C58.3697 172.291 56.2127 158.669 58.3696 154.285C59.1443 152.711 62.1839 152.569 65.5189 152.706C66.5567 153.382 70.511 155.934 72.1352 155.616C72.1527 155.613 72.1842 155.606 72.2261 155.595C72.991 155.401 73.2797 154.86 72.6418 154.393C72.6405 154.392 74.2935 154.232 76.3447 154.622C77.5034 154.841 80.6282 156.472 80.6282 156.472C80.6282 156.472 79.0545 159.338 76.7342 160.328C77.1287 163.887 76.542 165.456 72.8803 173.676C69.786 180.624 73.2977 186.879 73.2977 186.879C73.2977 186.879 55.083 201.645 54.9816 194.127C54.9056 188.467 59.8766 180.058 59.0312 175.701Z" fill="#F9DDBF"/>
<path d="M74.2006 202.935C75.1912 202.823 76.083 202.276 76.6368 201.44C76.7247 201.307 76.8187 201.164 76.9184 201.013C78.9918 197.848 79.7984 188.156 84.4621 177.831C85.598 175.318 89.6756 174.866 90.7874 172.025C90.7874 172.025 93.524 162.815 85.5495 162.543C77.575 162.271 64.1926 188.169 63.9813 190.885C63.7765 193.516 58.7091 204.697 74.2006 202.935Z" fill="#DD6D22"/>
<path d="M105.895 202.723H94.5455C94.5455 202.723 94.1212 200.898 94.8664 199.656C95.526 198.557 95.2732 197.932 94.7847 197.022C95.2989 197.234 95.9636 197.427 96.6958 197.385C97.2616 197.352 97.86 197.093 98.3839 196.786C98.8729 197.348 100.965 199.738 101.618 200.211C102.36 200.749 105.667 200.557 105.895 202.723Z" fill="#233862"/>
<path d="M91.0468 165.206C91.7303 170.372 94.3992 186.677 99.107 194.632C100.625 197.197 95.283 198.634 95.2543 198.626C94.5377 198.437 93.3442 197.286 92.794 196.786C88.9718 193.312 81.2126 183.478 81.2126 175.594C81.2126 171.75 81.1457 164.407 83.9184 162.541C85.626 161.392 90.7755 163.153 91.0468 165.206Z" fill="#ED7D2B"/>
<path d="M67.4326 202.723C67.4326 202.723 67.8532 202.132 68.5866 201.013C69.4596 199.679 70.4254 197.056 71.5974 193.693C72.8285 190.163 74.289 185.82 76.114 181.302C76.6773 179.907 77.2754 178.494 77.9115 177.086C79.0476 174.572 82.1725 174.919 83.2842 172.077C83.2842 172.077 87.6223 162.227 79.6478 161.956C71.6734 161.683 56.5204 188.306 55.6496 190.885C54.6963 193.707 50.0455 205.427 67.4326 202.723Z" fill="#F99746"/>
<path d="M97.5643 202.723H86.2136C86.2136 202.723 85.7894 200.898 86.5345 199.656C87.1941 198.557 86.9413 197.932 86.4529 197.022C86.967 197.234 87.6321 197.427 88.3645 197.385C88.93 197.352 89.528 197.093 90.0525 196.786C90.5409 197.348 92.6327 199.738 93.2863 200.211C94.028 200.749 97.335 200.557 97.5643 202.723Z" fill="#2B478B"/>
<path d="M71.5974 193.693C72.8287 190.163 74.2893 185.82 76.1145 181.302C75.6378 177.878 74.6095 174.883 72.8805 173.676C72.8805 173.676 68.6857 186.777 71.5974 193.693Z" fill="#ED7D2B"/>
<path d="M84.4213 164.84C85.1048 170.006 86.0673 186.677 90.7754 194.632C92.2933 197.197 86.9512 198.634 86.9223 198.626C86.2059 198.437 85.0122 197.286 84.4621 196.786C80.6398 193.312 72.8806 183.478 72.8806 175.594C72.8806 171.75 77.3556 164.715 80.1281 162.849C81.8358 161.7 84.1498 162.787 84.4213 164.84Z" fill="#F99746"/>
<path d="M75.1737 147.166C75.1737 147.166 74.4812 146.89 72.5324 147.049C72.5324 147.049 72.6359 147.816 74.0732 147.891C74.8872 147.935 75.1737 147.166 75.1737 147.166Z" fill="white"/>
<path d="M109.059 150.043L106.706 145.762L101.616 160.085L104.619 163.335L109.059 150.043Z" fill="#163560"/>
<path d="M96.7727 152.55L92.0403 166.18L104.618 163.335L109.059 150.043L96.7727 152.55Z" fill="#1C468A"/>
<path d="M92.291 165.492L92.0706 165.104L96.5484 152.205L96.7731 152.55L92.291 165.492Z" fill="#EFDECE"/>
<path d="M96.548 152.205L108.473 149.866L109.058 150.043L96.7727 152.55L96.548 152.205Z" fill="#FCECDB"/>
<path d="M109.059 150.043L106.515 145.971L104.892 150.569L108.473 149.866L109.059 150.043Z" fill="#EFDECE"/>
<path d="M100.404 154.524C99.9952 154.445 99.1174 154.111 98.2291 153.865C98.4945 153.657 98.7891 153.402 98.8717 153.14C99.0301 152.636 99.136 152.473 98.6075 152.632C98.0789 152.793 96.2301 153.648 96.2301 153.648L96.2348 153.65C95.1847 153.959 94.2169 155.456 94.2169 155.456C94.2169 155.456 81.2124 160.065 79.6478 160.145C77.2274 160.267 61.1176 154.285 61.1176 154.285C57.3158 155.131 58.1687 159.842 59.4769 160.677C60.7851 161.513 72.3772 165.765 79.2472 165.844C82.7269 165.886 95.3842 157.683 95.3842 157.683C95.3842 157.683 96.8635 157.001 98.0265 157.215C99.1884 157.427 101.884 157.215 102.464 156.256C103.045 155.297 101.091 154.657 100.404 154.524Z" fill="#FFB27D"/>
<path d="M69.4175 157.235C69.4175 157.235 67.9766 161.834 63.0285 162.881C63.0285 162.881 54.857 160.342 58.9256 154.73C58.9256 154.73 62.9484 151.716 69.4175 157.235Z" fill="#F9DDBF"/>
<path d="M108.848 154.871H108.847C108.85 154.744 108.838 154.618 108.804 154.497C108.804 154.497 107.637 152.638 107.255 152.562C106.093 152.331 106.093 153.874 106.34 154.871C106.511 155.563 106.948 156.23 107.302 156.589L107.255 158.043C109.221 156.955 108.848 154.871 108.848 154.871Z" fill="#FFB27D"/>
<path d="M40.5744 130.595C41.0391 119.004 31.4027 113.855 21.5498 113.855C11.6968 113.855 0.97437 116.429 0.0453351 131.842C-0.552251 141.758 4.69051 147.86 19.7873 147.86C24.8789 147.86 28.8359 147.05 31.8668 145.606L39.4132 152.367L35.7048 143.021C38.9899 139.941 40.3741 135.598 40.5744 130.595Z" fill="#EBF3FA"/>
<path d="M237.935 95.8077C238.36 85.2106 229.55 80.5025 220.543 80.5025C211.534 80.5025 201.733 82.856 200.883 96.9474C200.337 106.013 205.13 111.591 218.931 111.591C223.586 111.591 227.203 110.85 229.974 109.529L236.873 115.711L233.483 107.168C236.486 104.352 237.752 100.381 237.935 95.8077Z" fill="#91B5F8"/>
<path d="M235.131 151.72C237.269 155.533 239.98 157.019 239.98 157.019L251.304 157.099C251.304 157.099 233.5 148.812 235.131 151.72Z" fill="#233862"/>
<path d="M243.624 181.164C243.916 181.507 243.951 181.888 243.802 182.294L243.8 182.3C243.524 183.05 242.626 183.885 241.583 184.716C241.45 184.823 241.331 184.92 241.229 185.01C241.201 185.034 241.174 185.057 241.148 185.081C241.127 185.1 241.108 185.118 241.087 185.136C240.115 186.028 240.477 186.236 238.728 188.047C236.732 190.109 235.369 190.137 234.982 189.945C234.656 189.782 235.33 188.684 236.078 187.452C236.114 187.392 236.149 187.332 236.186 187.272C236.286 187.108 236.384 186.941 236.483 186.777C237.36 185.293 237.142 184.592 236.952 182.373C236.799 180.57 234.242 172.286 234.242 172.286L238.041 171.654C238.041 171.654 239.138 178.243 240.389 179.267C241.059 179.812 241.813 179.823 242.457 180.228C242.503 180.256 242.547 180.286 242.591 180.315C242.957 180.564 243.33 180.82 243.624 181.164Z" fill="#FFB27D"/>
<path d="M243.624 181.164C243.916 181.507 243.951 181.888 243.802 182.294L243.8 182.3C243.463 183.049 242.587 183.879 241.579 184.709C241.448 184.817 241.331 184.916 241.229 185.01C241.201 185.034 241.174 185.057 241.148 185.081C241.127 185.1 241.108 185.118 241.087 185.136C240.114 186.028 240.477 186.236 238.728 188.047C236.732 190.109 235.369 190.137 234.982 189.945C234.656 189.782 235.33 188.684 236.078 187.452C236.464 187.312 238.26 186.591 239.625 184.855C240.828 183.33 241.637 181.365 242.457 180.228C242.502 180.257 242.547 180.286 242.591 180.315C242.957 180.564 243.33 180.82 243.624 181.164Z" fill="#233862"/>
<path d="M213.045 178.557C212.803 179.736 211.135 179.527 209.273 179.054C207.412 178.581 207.851 179.131 205.198 178.816C202.546 178.5 201.749 177.497 201.671 177.099C201.601 176.745 202.913 176.629 204.321 176.477C204.499 176.458 204.676 176.437 204.854 176.416C206.444 176.227 207.614 175.201 209.062 174.363C210.435 173.569 212.498 170.308 212.498 170.308L216.136 170.624C216.136 170.624 214.205 173.536 213.457 174.803C213.017 175.548 213.034 176.538 213.083 177.302C213.108 177.717 213.131 178.141 213.045 178.557Z" fill="#FFB27D"/>
<path d="M209.273 179.054C207.412 178.581 207.85 179.131 205.198 178.816C202.546 178.5 201.749 177.497 201.671 177.099C201.601 176.746 202.913 176.629 204.321 176.477L204.335 176.504C204.335 176.504 205.918 177.653 208.128 177.722C209.927 177.78 211.839 177.273 213.082 177.302C213.108 177.717 213.131 178.141 213.045 178.557C212.803 179.736 211.135 179.527 209.273 179.054Z" fill="#233862"/>
<path d="M227.161 155.188L230.499 164.444L234.858 176.531C234.858 176.531 236.063 176.656 237.22 176.33C238.285 176.028 239.51 175.227 239.51 175.227C239.51 175.227 238.367 162.274 236.117 154.827C235.541 152.915 234.891 151.368 234.167 150.495C230.629 146.219 227.161 155.188 227.161 155.188Z" fill="#233862"/>
<path d="M230.723 140.549C232.958 139.84 239.309 140.816 245.688 142.122L247.042 139.908L260.846 138.92C260.846 138.92 265.327 149.131 262.79 155.6C262.417 156.55 261.507 156.946 260.266 156.958L260.265 156.959C260.265 156.959 252.031 157.103 249.364 157.085C242.503 157.035 234.876 152.226 233.887 152.018C232.267 151.68 231.595 154.946 229.949 158.369C228.304 161.791 214.598 173.467 214.598 173.467C214.598 173.467 212.504 173.474 211.641 173.141C210.713 172.782 210.377 172.323 210.377 172.323C210.377 172.323 225.684 142.149 230.723 140.549Z" fill="#2B478B"/>
<path d="M247.256 120.752C252.151 123.514 262.078 129.239 262.13 129.203C262.13 129.203 265.784 130.621 267.872 129.244C271.352 126.95 273.253 120.72 266.956 115.303C263.815 112.601 261.575 111.933 261.264 107.653C261.095 105.331 258.002 97.6483 252.769 98.3197C252.332 98.3761 251.891 98.416 251.451 98.3983C250.841 98.3737 249.832 98.4559 248.793 99.0698C245.822 100.825 239.898 119.644 247.256 120.752Z" fill="#233862"/>
<path d="M251.39 118.46C251.37 118.474 253.803 119.331 255.439 118.613C256.978 117.941 258.157 115.404 258.135 115.403C257.437 115.365 256.675 114.745 256.114 110.703L255.816 110.809L250.806 112.586C250.806 112.586 251.156 114.206 251.38 115.746C251.567 117.039 251.665 118.279 251.39 118.46Z" fill="#FFB27D"/>
<path d="M250.806 112.586C250.806 112.586 251.019 113.721 251.316 115.343C254.19 114.842 255.4 112.371 255.816 110.809L250.806 112.586Z" fill="#ED975D"/>
<path d="M250.051 114.185C250.051 114.185 256.895 113.309 256.287 109.021C255.68 104.732 256.154 101.731 251.76 102.109C247.365 102.487 246.749 104.246 246.606 105.727C246.464 107.208 248.254 114.303 250.051 114.185Z" fill="#FFB27D"/>
<path d="M246.872 103.381C246.872 103.381 251.222 107.215 254.196 107.542C257.171 107.87 258.305 106.914 258.305 106.914C258.305 106.914 256.561 105.433 255.521 103.056C255.215 102.354 254.561 101.87 253.804 101.799C251.679 101.599 247.651 101.485 246.872 103.381Z" fill="#233862"/>
<path d="M249.611 103.059C249.611 103.059 248.136 104.476 247.668 105.533C247.216 106.55 247.064 108.993 247.413 109.966C247.413 109.966 245.162 105.477 246.469 103.314C247.855 101.019 249.611 103.059 249.611 103.059Z" fill="#233862"/>
<path d="M245.564 128.572C245.672 142.526 245.543 139.61 247.047 140.945C247.41 141.266 248.434 141.464 249.783 141.562C254.024 141.877 261.489 141.225 261.778 140.437C262.777 137.707 262.091 136.853 262.937 132.67C263.025 132.225 263.134 131.743 263.261 131.22C263.962 128.348 264.632 127.373 262.248 122.735C260.087 118.532 257.836 115.119 257.63 115.24C251.826 118.658 251.38 115.747 251.38 115.747C251.38 115.747 245.509 121.766 245.564 128.572Z" fill="#F9DDBF"/>
<path d="M230.499 164.444L234.858 176.531C234.858 176.531 236.063 176.656 237.221 176.33C238.286 176.028 239.511 175.227 239.511 175.227C239.511 175.227 238.368 162.274 236.118 154.827L230.499 164.444Z" fill="#2B478B"/>
<path d="M251.38 115.746C251.38 115.746 245.426 116.72 244.709 119.296C243.993 121.874 239.777 137.021 239.777 137.021C239.777 137.021 242.796 137.59 244.203 136.192C245.61 134.794 249.154 123.162 249.154 123.162L251.38 115.746Z" fill="#F9DDBF"/>
<path d="M249.783 141.562C254.024 141.877 261.489 141.225 261.777 140.437C262.776 137.707 262.091 136.853 262.937 132.67L260.931 126.844C260.931 126.844 261.223 133.317 259.319 135.007C257.416 136.695 251.546 138.237 250.617 139.652C250.168 140.331 249.871 141.014 249.783 141.562Z" fill="#F2CCAA"/>
<path d="M254.665 138.875C254.665 138.875 250.484 137.906 249.806 138.276C249.127 138.645 247.467 139.998 247.258 140.472C247.047 140.945 248.764 140.122 249.321 139.975C249.683 139.88 250.628 140.219 251.097 140.38C253.069 141.059 254.282 140.725 254.282 140.725L254.665 138.875Z" fill="#FFB27D"/>
<path d="M257.633 115.236C257.633 115.236 263.251 115.626 265.178 118.376C267.891 122.247 273.21 138.703 270.081 140.87C266.557 143.311 254.114 141.401 254.114 141.401C254.114 141.401 253.713 139.446 254.296 138.504C254.88 137.564 264.262 136.104 264.697 135.671C265.133 135.239 259.35 127.129 259.36 125.822C259.369 124.513 257.633 115.236 257.633 115.236Z" fill="#F9DDBF"/>
<path d="M249.595 139.449C249.595 139.449 248.709 140.583 248.422 140.718C248.133 140.852 247.947 140.817 247.947 140.817L248.546 139.748L249.595 139.449Z" fill="#FFB27D"/>
<path d="M249.806 138.275L247.247 139.507C247.247 139.507 247.354 139.686 247.668 139.674C247.982 139.662 248.777 139.375 248.777 139.375L249.806 138.275Z" fill="#FFB27D"/>
<path d="M248.967 142.559L228.793 142.416L222.831 127.157L242.973 127.301L248.967 142.559Z" fill="#F99746"/>
<path d="M228.56 141.821L255.201 142.01L255.196 142.604L228.793 142.416L228.56 141.821Z" fill="#ED7D2B"/>
<path d="M233.939 134.844C233.79 134.307 234.101 133.877 234.631 133.88C235.162 133.884 235.712 134.322 235.86 134.857C236.008 135.394 235.698 135.826 235.169 135.821C234.638 135.818 234.087 135.38 233.939 134.844Z" fill="white"/>
<path d="M187.66 190.585L187.657 202.871L126.363 202.858L126.366 190.573L187.66 190.585Z" fill="#C65447"/>
<path d="M126.362 202.859L117.353 198.974L112.114 196.713L117.477 194.403L126.366 190.573C126.366 190.573 127.552 193.564 127.569 196.377C127.597 200.792 126.362 202.859 126.362 202.859Z" fill="#FCECDB"/>
<path d="M194.785 194.661V198.545C194.784 200.935 192.863 202.871 190.494 202.871H187.657L187.66 190.585L190.744 190.586C192.977 190.586 194.786 192.411 194.785 194.661Z" fill="#FCECDB"/>
<path d="M117.477 194.403C117.701 195.644 117.894 197.545 117.354 198.974L112.114 196.713L117.477 194.403Z" fill="#2B478B"/>
<path d="M139.541 126.606C139.541 126.606 140.639 131.409 143.84 131.409C146.584 131.409 150.347 125.156 150.347 125.156L139.541 126.606Z" fill="#F99746"/>
<path d="M182.379 202.651H172.563C172.563 202.651 172.196 201.073 172.84 199.999C173.411 199.048 173.193 198.507 172.77 197.721C173.215 197.904 173.79 198.072 174.423 198.034C174.912 198.006 175.429 197.783 175.884 197.516C176.305 198.002 178.114 200.069 178.68 200.479C179.322 200.944 182.181 200.778 182.379 202.651Z" fill="#233862"/>
<path d="M178.67 198.543L171.408 199.804C171.408 199.804 166.546 189.719 162.916 179.438C162.426 177.62 161.782 174.63 161.422 173.011L161.233 171.718L161.172 171.364L160.92 170.213C160.46 168.574 160.035 166.568 159.439 164.161C157.447 158.641 152.892 146.196 150.945 141.018L164.936 136.589C164.936 136.589 166.526 139.76 168.81 148.377C169.161 149.501 169.513 150.745 169.843 152.1C170.216 153.635 170.563 155.314 170.853 157.127C171.344 160.198 171.671 163.653 171.691 167.445C171.7 168.986 172.172 170.626 172.067 172.275C172.067 172.275 172.382 174.91 172.585 176.796C174.347 185.179 178.67 198.543 178.67 198.543Z" fill="#2B478B"/>
<path d="M170.862 157.127L161.658 171.46C161.524 171.102 161.365 170.681 161.187 170.204C160.608 168.665 159.812 166.558 158.907 164.16C156.82 158.641 152.049 146.195 150.01 141.018L164.665 136.589C164.665 136.589 166.33 139.759 168.722 148.376C169.09 149.501 169.458 150.745 169.804 152.1C170.195 153.635 170.559 155.313 170.862 157.127Z" fill="#233862"/>
<path d="M151.258 199.572C151.258 199.572 150.58 201.253 151.219 202.67H156.558C156.558 202.67 156.669 201.393 154.732 199.91C153.265 198.788 151.258 199.572 151.258 199.572Z" fill="#233862"/>
<path d="M150.635 114.226C151.794 114.935 153.248 115.519 155.072 115.89C161.916 117.282 164.537 112.189 165.522 108.693C164.589 108.223 163.711 108.119 163.204 108.066C162.71 108.014 162.581 107.98 162.15 107.961C161.382 107.444 160.236 105.321 159.984 102.028L159.27 102.104L153.438 103.387C153.438 103.387 153.757 104.838 153.878 106.265C153.972 107.382 153.97 108.252 153.73 108.513C153.309 108.593 153.441 108.919 153.441 108.919L153.438 108.924C153.365 109.028 151.802 111.294 150.635 114.226Z" fill="#FFB27D"/>
<path d="M153.71 103.389C153.71 103.389 154.217 104.91 154.322 106.339C156.991 106.07 158.389 103.51 158.871 102.105L153.71 103.389Z" fill="#ED985F"/>
<path d="M153.125 105.571C153.125 105.571 161.05 104.867 160.608 99.7409C160.169 94.6137 160.895 91.0698 155.817 91.3013C150.739 91.5341 150.112 93.5182 149.43 95.1866C148.848 96.4511 151.053 105.621 153.125 105.571Z" fill="#FFB27D"/>
<path d="M147.181 92.6105C147.499 91.4864 148.373 90.6677 150.101 89.8728C151.518 89.221 158.862 88.3117 159.491 88.71C159.834 88.927 160.199 88.9752 160.301 88.8173C160.61 88.3417 161.575 90.4165 161.878 92.2074C162.461 95.6468 161.219 100.896 159.957 100.33C159.698 100.215 159.353 99.3328 159.19 98.3703C158.977 97.1096 158.748 96.6458 158.371 96.7107C158.084 96.7602 157.778 96.9954 157.692 97.2333C157.421 97.9769 157.067 97.7922 155.943 96.3207C154.593 94.5543 153.641 94.4389 151.124 95.7377C149.293 96.6819 149.109 96.7137 148.383 96.2091C147.255 95.425 146.784 94.0129 147.181 92.6105Z" fill="#2C3A64"/>
<path d="M152.338 108.598C152.338 108.598 162.657 106.072 167.144 109.804L164.902 141.337L144.719 136.42C144.719 136.42 145.287 134.425 149.157 129.12C153.027 123.813 151.343 116.031 152.338 108.598Z" fill="#FFB27D"/>
<path d="M158.353 137.826C158.353 137.826 158.342 137.933 158.321 138.137C158.311 138.224 158.3 138.331 158.287 138.454C158.199 139.271 158.035 140.839 157.823 142.878C157.269 148.226 156.401 156.814 155.808 163.594C155.345 168.895 155.21 172.86 155.21 173.764C155.21 175.591 156.207 200.023 156.207 200.023C154.491 200.853 149.21 200.023 149.21 200.023C149.21 200.023 146.534 179.647 146.107 176.502C145.68 173.357 145.148 169.502 145.148 169.502C141.599 152.845 143.377 143.635 144.081 139.216C144.286 137.93 144.518 137.052 144.688 136.517C144.832 136.062 144.931 135.854 144.931 135.854C152.757 133.73 158.353 137.826 158.353 137.826Z" fill="#2B478B"/>
<path d="M169.096 120.204C168.569 124.484 169.848 130.047 169.096 132.866C169.096 132.866 169.528 142.948 168.327 145.636C165.39 146.211 165.5 146.329 165.5 146.329C160.948 148.002 145.787 144.257 141.903 141.914C141.637 139.729 144.103 130.59 144.503 129.657C144.669 129.271 150.084 127.239 149.278 124.647C148.137 128.433 141.838 127.344 141.838 127.344C142.577 125.984 143.716 115.758 145.773 111.508C147.319 108.313 152.929 108.422 152.929 108.422C152.929 108.422 153.949 109.901 158.104 109.485C162.261 109.069 162.142 107.962 162.142 107.962C162.142 107.962 166.692 108.271 167.828 109.256C168.025 109.427 169.787 114.596 169.096 120.204Z" fill="#F99746"/>
<path d="M168.181 129.623C168.181 129.623 169.391 137.976 168.591 140.493C165.343 139.382 162.375 135.56 162.289 130.851C162.225 127.371 162.725 126.505 164.271 124.291C165.408 122.664 168.858 122.28 168.71 122.999C168.272 125.139 168.373 128.264 168.181 129.623Z" fill="#ED7D2B"/>
<path d="M152.533 119.474L159.56 130.84H147.604L140.909 119.719L152.533 119.474Z" fill="#1C468A"/>
<path d="M159.195 130.269L159.317 129.873L152.667 119.116L152.533 119.474L159.195 130.269Z" fill="#EFDECE"/>
<path d="M152.667 119.115L141.404 119.438L140.909 119.719L152.533 119.474L152.667 119.115Z" fill="#FCECDB"/>
<path d="M140.909 119.719L134.589 116.27L141.955 127.933L147.604 130.84L140.909 119.719Z" fill="#163560"/>
<path d="M174.347 127.684C173.671 127.997 171.934 130.059 171.313 130.269C168.525 131.209 156.451 129.518 156.451 129.518L157.027 126.612C157.027 126.612 168.673 126.923 169.953 126.578C170.194 126.512 171.453 124.528 171.937 124.243L174.347 127.684Z" fill="#FFB27D"/>
<path d="M157.028 126.61C157.028 126.61 155.624 125.459 154.675 125.719C153.726 125.98 152 126.656 151.482 126.943C150.964 127.229 149.884 128.788 150.597 129.407C151.311 130.027 153.18 129.984 154.061 129.51C154.923 129.407 156.457 129.51 156.457 129.51L157.028 126.61Z" fill="#FFB27D"/>
<path d="M155.069 125.688C155.069 125.688 153.046 125.439 152.493 125.451C151.941 125.462 152.092 125.587 152.396 126.028C152.701 126.471 153.754 126.64 153.802 126.795C153.85 126.949 155.069 125.688 155.069 125.688Z" fill="#FFB27D"/>
<path d="M162.66 107.964C162.66 107.964 169.596 108.261 171.26 110.449C173.364 113.217 177.786 124.585 177.626 127.362C177.626 127.362 173.994 132.579 161.543 131.744C161.543 131.744 160.247 127.881 162.866 126.606C162.866 126.606 169.262 125.646 169.998 125.098L164.784 117.098L162.66 107.964Z" fill="#F99746"/>
<path d="M142.528 123.874C142.371 123.231 140.981 123.633 140.512 124.003C140.398 124.093 140.275 124.246 140.156 124.425C140.14 124.318 140.128 124.215 140.121 124.135C140.095 123.832 139.746 123.291 139.66 123.696C139.572 124.102 139.43 125.803 139.43 125.803C139.413 127.174 140.287 127.74 140.848 127.293C141.409 126.847 142.684 124.518 142.528 123.874Z" fill="#FFB27D"/>
<path d="M328.316 203.765H9.50799C9.28213 203.765 9.09726 203.58 9.09726 203.352V203.08C9.09726 202.851 9.28213 202.666 9.50799 202.666H328.316C328.542 202.666 328.727 202.851 328.727 203.08V203.352C328.727 203.58 328.542 203.765 328.316 203.765Z" fill="#2E3552"/>
</svg>
