<svg width="388" height="390" viewBox="0 0 388 390" fill="none" xmlns="http://www.w3.org/2000/svg">
<path fill-rule="evenodd" clip-rule="evenodd" d="M174.413 281.139C170.36 282.11 166.14 286.095 165.12 289.911L164.774 291.206H162.678H160.581L160.79 290.215C160.906 289.672 161.059 288.746 161.131 288.16C161.202 287.573 161.343 286.751 161.443 286.332C161.543 285.913 161.688 285.228 161.766 284.809C161.975 283.687 163.053 282.677 164.044 282.677C164.698 282.677 164.9 282.533 164.9 282.067C164.9 281.162 154.149 281.11 153.913 282.016C153.797 282.459 154.038 282.646 155.09 282.928C156.722 283.367 156.727 283.439 155.675 290.423C155.27 293.115 154.872 295.798 154.791 296.385C154.143 301.082 153.532 302.277 151.621 302.584C150.761 302.722 150.468 302.919 150.433 303.383C150.389 303.982 150.554 303.999 156.128 303.999C161.629 303.999 161.869 303.974 161.869 303.402C161.869 302.96 161.545 302.717 160.63 302.469L159.39 302.134L159.474 300.096C159.519 298.976 159.651 297.854 159.767 297.603C159.882 297.352 160.052 296.412 160.145 295.515C160.348 293.559 160.118 293.766 162.324 293.546L164.142 293.365L164.167 295.408C164.239 301.52 167.108 304.475 172.933 304.44C175.623 304.423 179.45 303.246 179.45 302.435C179.45 302.29 179.639 302.172 179.869 302.172C180.843 302.172 183.601 298.4 184.437 295.925C187.602 286.557 182.598 279.174 174.413 281.139ZM177.434 300.313C180.125 296.772 180.746 285.511 178.374 283.272C174.506 279.62 169.782 286.716 169.644 296.385C169.548 303.129 173.703 305.225 177.434 300.313Z" fill="#105A9F"/>
<path fill-rule="evenodd" clip-rule="evenodd" d="M197.822 280.721C197.554 281.423 197.544 281.413 198.699 281.631C199.789 281.836 200.289 283.146 199.381 283.418C193.596 285.158 193.751 285.087 192.039 286.767C190.626 288.152 189.916 289.198 189.592 290.368C189.557 290.494 189.501 290.631 189.468 290.673C189.206 290.998 189.051 293.242 189.168 295.013C189.345 297.716 191.985 300.245 195.516 301.094C197.605 301.596 197.194 303.567 194.962 303.754C194.069 303.829 193.829 303.984 193.751 304.539L193.653 305.232L198.9 305.149C203.575 305.074 204.158 305.008 204.247 304.543C204.316 304.184 204.081 303.957 203.492 303.816C200.753 303.157 201.239 301.771 204.447 301.097C214.375 299.01 215.976 285.546 206.478 284.02C204.609 283.72 204.425 281.763 206.266 281.763C206.99 281.763 207.944 281.058 207.944 280.523C207.944 279.976 198.032 280.17 197.822 280.721ZM197.208 299.659C197.339 299.527 199.456 286.395 199.456 285.716C199.456 285.385 199.354 285.115 199.229 285.116C195.063 285.15 192.719 296.262 196.283 299.079C196.745 299.444 197.162 299.706 197.208 299.659ZM205.643 285.723C205.408 285.723 205.216 285.585 205.216 285.419C205.216 284.822 204.619 285.125 204.464 285.799C203.865 288.426 202.258 299.626 202.452 299.821C203.698 301.073 206.648 297.076 207.369 293.154C207.908 290.223 206.863 285.723 205.643 285.723Z" fill="#105A9F"/>
<path d="M215.219 282.054C215.219 282.491 215.495 282.701 216.26 282.845C217.796 283.135 218.084 283.621 219.876 288.939C223.422 299.466 223.436 299.535 222.208 300.885C221.158 302.04 219.254 302.23 217.434 301.362C216.094 300.722 215.741 301.125 215.934 303.073C216.277 306.543 219.669 306.291 222.797 302.563C223.714 301.47 224.703 300.318 224.994 300.003C225.286 299.688 225.525 299.34 225.525 299.231C225.525 299.121 225.844 298.607 226.234 298.088C227.729 296.1 230.988 290.382 233.037 286.152C233.908 284.353 235.291 282.982 236.232 282.982C237.1 282.982 237.65 282.61 237.65 282.027C237.65 281.231 229.32 281.272 229.306 282.067C229.301 282.328 229.757 282.666 230.367 282.855C231.96 283.346 231.906 284.191 230.029 288.065C227.985 292.284 227.009 293.816 226.709 293.277C226.256 292.464 223.707 284.333 223.706 283.7C223.706 283.197 223.947 283.003 224.767 282.849C225.55 282.701 225.829 282.493 225.829 282.054C225.829 281.486 225.585 281.458 220.524 281.458C215.462 281.458 215.219 281.486 215.219 282.054Z" fill="#105A9F"/>
<path fill-rule="evenodd" clip-rule="evenodd" d="M194.011 150.766C194.005 204.02 194.111 241.557 194.27 241.387C194.419 241.227 194.63 240.207 194.74 239.118C194.85 238.028 195.002 236.864 195.078 236.528C195.24 235.81 196.484 226.691 197.362 219.775C197.702 217.095 198.097 214.011 198.241 212.922C198.612 210.1 199.384 204.076 199.763 201.042C199.94 199.617 200.21 197.63 200.363 196.625C200.661 194.656 200.954 192.487 201.884 185.354C202.212 182.841 202.624 179.689 202.799 178.349C202.974 177.008 203.243 175.157 203.396 174.236C203.549 173.315 203.741 171.807 203.822 170.886C203.904 169.964 204.178 167.702 204.431 165.859C205.256 159.859 207.621 142.334 209.014 131.896C209.763 126.283 210.72 119.155 211.139 116.056C211.558 112.957 212.244 107.885 212.662 104.785C213.079 101.686 213.555 98.2156 213.72 97.0722L214.018 94.995L211.692 90.5239C210.412 88.0646 208.112 83.8585 206.582 81.178C205.051 78.4974 203.703 76.0986 203.586 75.8481C203.469 75.5966 203.207 75.117 203.004 74.7817C202.802 74.4464 201.901 72.8702 201.004 71.2785C200.108 69.6867 199.277 68.3162 199.157 68.2324C199.038 68.1486 198.886 67.94 198.82 67.7684C198.462 66.8473 195.356 61.4959 194.741 60.7395L194.021 59.8554L194.011 150.766ZM177.173 90.9362C176.867 91.4333 176.163 92.5484 175.608 93.414C175.054 94.2805 174.6 95.0711 174.6 95.1715C174.6 95.2719 174.255 95.9045 173.833 96.5761C172.934 98.006 169.212 104.33 165.625 110.523L163.096 114.891L164.787 122.707C165.719 127.007 166.806 131.964 167.206 133.724C167.604 135.482 168.469 139.595 169.127 142.862C170.361 148.985 171.394 153.97 172.475 159.006C172.816 160.597 173.355 163.133 173.673 164.641C175.289 172.328 177.464 182.443 178.847 188.705C179.699 192.558 180.718 197.219 181.112 199.062C181.507 200.904 182.169 203.92 182.583 205.763C182.997 207.606 183.567 210.279 183.849 211.703C184.131 213.127 184.684 215.8 185.079 217.643C185.473 219.486 186.066 222.364 186.399 224.04C186.732 225.715 187.338 228.594 187.747 230.436C188.157 232.279 188.923 235.843 189.45 238.356C190.365 242.728 191.231 245.875 191.253 244.905C191.266 244.237 190.049 230.042 187.62 202.565C187.286 198.795 186.816 193.381 186.574 190.533C186.331 187.685 185.786 181.379 185.361 176.521C184.937 171.662 184.385 165.22 184.136 162.204C183.887 159.189 183.335 152.814 182.911 148.04C182.486 143.265 181.947 136.822 181.711 133.724C181.476 130.624 181.159 126.923 181.007 125.499C180.855 124.075 180.575 120.853 180.386 118.34C180.196 115.827 179.91 112.264 179.75 110.42C179.59 108.578 179.174 103.507 178.827 99.1504C178.108 90.1271 178.002 89.594 177.173 90.9362ZM223.297 114.914C223.035 116.296 221.313 124.897 219.47 134.028C217.627 143.158 215.5 153.782 214.741 157.635C213.984 161.488 213.038 166.217 212.639 168.144C212.242 170.071 211.496 173.771 210.982 176.369C210.468 178.966 209.761 182.461 209.411 184.136C209.061 185.811 208.716 187.593 208.642 188.096C208.569 188.598 208.183 190.517 207.786 192.361C207.017 195.924 203.836 212.146 203.604 213.683C203.528 214.185 203.033 216.653 202.501 219.166C201.97 221.679 201.419 224.42 201.277 225.258C201.006 226.851 199.174 235.902 198.378 239.574C197.83 242.104 197.383 244.905 197.527 244.905C197.665 244.905 198.506 242.909 199.003 241.402C199.224 240.732 200.314 237.716 201.423 234.701C202.533 231.686 203.564 228.723 203.713 228.118C203.864 227.513 204.411 225.868 204.929 224.463C207.311 217.996 213.152 201.624 215.35 195.255C215.899 193.663 216.921 190.784 217.622 188.857C218.323 186.93 219.344 184.052 219.891 182.461C220.438 180.869 221.327 178.333 221.865 176.825C222.403 175.317 223.03 173.535 223.257 172.866C224.014 170.63 225.48 166.493 226.28 164.337C226.714 163.164 227.322 161.45 227.63 160.529C228.17 158.914 229.856 154.171 232.502 146.821C237.194 133.791 237.055 134.386 235.845 132.505C235.482 131.941 227.768 118.356 225.858 114.918C224.119 111.789 223.887 111.788 223.297 114.914ZM152.323 133.581C152.019 134.078 151.451 134.996 151.06 135.621C150.67 136.245 150.35 136.81 150.35 136.876C150.35 136.991 145.946 144.724 144.061 147.917C142.459 150.633 142.408 150.39 146.262 158.549C147.288 160.719 149.398 165.289 150.202 167.078C151.475 169.907 152.818 172.858 153.53 174.388C153.919 175.226 155.018 177.625 155.971 179.719C156.924 181.813 158.352 184.898 159.145 186.572C159.938 188.248 161.884 192.429 163.47 195.864C165.057 199.298 167.336 204.232 168.537 206.83C169.738 209.426 173.217 217.033 176.268 223.735C179.32 230.436 182.374 237.127 183.058 238.602C183.741 240.078 184.3 241.332 184.3 241.387C184.3 241.727 187.974 249.234 188.085 249.123C188.16 249.047 187.742 247.416 187.157 245.499C185.882 241.328 184.828 237.832 182.938 231.502C182.162 228.906 180.8 224.382 179.911 221.451C179.021 218.519 177.802 214.475 177.202 212.465C175.104 205.437 174.547 203.615 173.841 201.499C173.45 200.326 172.834 198.339 172.473 197.082C172.111 195.825 171.506 193.837 171.126 192.665C169.68 188.189 169.115 186.328 166.728 178.196C165.376 173.589 163.857 168.449 163.353 166.773C161.853 161.791 160.073 155.932 159.464 153.98C159.151 152.975 158.592 151.124 158.222 149.867C157.852 148.611 157.168 146.35 156.7 144.842C156.234 143.334 155.29 140.25 154.603 137.988C152.855 132.231 152.989 132.491 152.323 133.581ZM244.285 148.988C244.031 149.388 243.503 150.538 243.112 151.543C242.72 152.548 241.894 154.467 241.275 155.808C240.656 157.148 239.847 158.998 239.478 159.92C239.109 160.841 238.631 161.938 238.414 162.357C238.198 162.775 236.303 167.051 234.202 171.859C232.1 176.667 230.054 181.327 229.654 182.215C229.255 183.104 228.621 184.517 228.247 185.354C227.872 186.192 227.256 187.563 226.877 188.4C226.499 189.238 225.649 191.226 224.988 192.818C224.018 195.157 219.464 205.502 215.67 213.987C215.295 214.826 214.274 217.155 213.4 219.166C212.526 221.176 211.504 223.507 211.13 224.344C210.755 225.182 210.139 226.621 209.76 227.543C209.381 228.464 208.767 229.903 208.396 230.741C208.025 231.578 206.805 234.389 205.684 236.985C204.564 239.582 203.371 242.324 203.032 243.078C202.693 243.831 202.3 244.723 202.159 245.057C202.017 245.393 201.556 246.472 201.133 247.456C200.711 248.441 200.366 249.332 200.367 249.436C200.368 249.593 202.46 246.449 203.907 244.115C204.105 243.795 204.777 242.712 205.399 241.707C206.022 240.702 207.379 238.565 208.414 236.96C209.45 235.354 210.893 233.053 211.622 231.847C212.349 230.641 213.15 229.328 213.4 228.929C213.65 228.53 214.729 226.788 215.798 225.055C216.867 223.324 218.946 220.025 220.42 217.723C221.894 215.422 223.1 213.494 223.1 213.437C223.1 213.265 227.024 206.758 227.412 206.291C227.611 206.049 227.916 205.59 228.09 205.272C228.463 204.588 232.429 198.256 233.983 195.864C234.583 194.942 235.224 193.914 235.408 193.579C235.593 193.244 236.307 192.079 236.995 190.99C237.682 189.9 238.739 188.188 239.344 187.182C239.95 186.177 240.537 185.286 240.648 185.202C240.761 185.118 241.451 184.022 242.182 182.765C242.913 181.509 243.796 180.069 244.143 179.567C244.49 179.064 244.911 178.417 245.077 178.127C245.243 177.838 246.391 175.988 247.629 174.015C248.866 172.043 250.367 169.632 250.963 168.659C251.56 167.686 252.438 166.278 252.913 165.533C253.915 163.96 253.939 164.068 251.766 160.376C250.879 158.868 249.624 156.684 248.978 155.52C246.642 151.312 245.674 149.622 245.214 148.948L244.745 148.262L244.285 148.988ZM133.224 167.057C132.629 167.991 132.053 168.989 131.944 169.276C131.834 169.563 131.23 170.575 130.603 171.525C129.974 172.476 129.172 173.783 128.819 174.43C128.467 175.077 127.724 176.36 127.168 177.28C126.005 179.206 125.989 179.14 128.283 181.963C130.368 184.526 135.751 191.252 136.861 192.679C138.003 194.146 147.902 206.463 148.601 207.286C148.885 207.621 149.815 208.786 150.667 209.876C151.519 210.965 152.852 212.598 153.632 213.506C154.411 214.413 155.243 215.441 155.481 215.79C155.719 216.138 156.333 216.927 156.845 217.541C158.538 219.572 159.658 220.974 160.818 222.516C161.449 223.355 162.047 224.108 162.148 224.192C162.548 224.523 164.9 227.486 164.9 227.659C164.9 227.759 165.159 228.152 165.476 228.53C165.792 228.909 166.577 229.847 167.218 230.616C167.86 231.386 172.203 236.826 176.869 242.705C181.533 248.584 185.387 253.356 185.433 253.311C185.602 253.142 183.65 249.551 180.402 244.054C179.879 243.167 179.45 242.386 179.45 242.32C179.45 242.254 178.922 241.335 178.278 240.277C177.633 239.22 176.355 237.054 175.437 235.463C171.45 228.55 169.314 224.882 168.696 223.888C167.723 222.317 165.999 219.365 165.124 217.765C164.702 216.995 163.49 214.899 162.431 213.107C161.371 211.314 160.3 209.477 160.05 209.024C159.8 208.571 158.981 207.13 158.231 205.822C156.053 202.024 154.958 200.068 154.237 198.681C153.866 197.969 153.454 197.386 153.321 197.386C153.187 197.386 153.078 197.2 153.078 196.972C153.078 196.744 152.718 196.025 152.276 195.372C151.836 194.721 151.075 193.446 150.587 192.54C150.099 191.633 148.844 189.44 147.801 187.666C146.757 185.892 144.702 182.384 143.233 179.871C141.763 177.358 140.12 174.548 139.581 173.627C139.042 172.706 137.799 170.523 136.821 168.777C134.677 164.953 134.589 164.911 133.224 167.057ZM257.791 177.341C256.235 179.591 254.12 182.526 248.941 189.619C248.085 190.791 245.651 194.15 243.533 197.082C241.414 200.013 239.394 202.77 239.044 203.208C238.695 203.645 238.203 204.313 237.953 204.692C237.703 205.071 237.362 205.535 237.195 205.724C237.028 205.913 236.484 206.684 235.984 207.439C234.743 209.315 231.229 214.257 231.004 214.444C230.904 214.528 230.289 215.385 229.639 216.348C228.988 217.311 228.342 218.1 228.203 218.1C228.063 218.1 227.95 218.233 227.95 218.396C227.95 218.559 226.89 220.101 225.593 221.823C224.297 223.545 222.286 226.393 221.124 228.152C219.963 229.911 218.907 231.487 218.778 231.654C218.648 231.822 217.525 233.33 216.283 235.006C215.04 236.681 213.412 238.874 212.666 239.879C207.44 246.914 204.142 251.488 203.33 252.825C202.59 254.044 201.423 255.207 239.289 216.986L267.703 188.307L266.923 187.065C266.495 186.382 266.144 185.764 266.144 185.693C266.144 185.622 265.305 184.145 264.279 182.412C263.255 180.68 262.222 178.851 261.985 178.349C260.102 174.352 259.893 174.301 257.791 177.341ZM119.204 191.332C118.996 191.546 118.825 191.81 118.825 191.92C118.825 192.029 118.153 193.269 117.332 194.676C114.73 199.136 112.761 202.666 112.779 202.847C112.793 203.011 129.584 215.775 141.105 224.382C143.939 226.499 147.144 228.932 148.228 229.789C150.793 231.815 150.327 231.461 154.139 234.294C155.973 235.657 157.541 236.864 157.625 236.975C157.708 237.087 158.458 237.637 159.292 238.198C160.126 238.759 161.012 239.406 161.262 239.634C162.357 240.632 163.437 241.51 165.496 243.078C166.707 243.999 168.467 245.38 169.406 246.146C171.346 247.727 176.124 251.357 179.108 253.517C180.213 254.316 181.322 255.138 181.572 255.345C182.157 255.826 183.892 256.929 183.694 256.693C183.373 256.312 173.72 246.425 163.549 236.06C157.706 230.108 151.29 223.511 149.289 221.403C135.923 207.319 119.562 190.965 119.204 191.332ZM271.097 199.109C270.124 199.903 269.179 200.698 268.997 200.874C268.627 201.235 266.251 203.294 262.657 206.371C261.324 207.512 259.943 208.733 259.589 209.084C258.918 209.751 258.582 210.043 252.648 215.13C250.644 216.847 248.72 218.527 248.374 218.861C248.028 219.196 247.02 220.087 246.133 220.842C245.247 221.595 244.372 222.349 244.19 222.516C243.012 223.597 241.277 225.064 240.407 225.715C239.847 226.134 238.486 227.316 237.382 228.342C234.467 231.052 232.305 232.981 230.072 234.864C228.988 235.778 228.033 236.595 227.95 236.679C227.866 236.764 227.181 237.331 226.427 237.94C225.672 238.548 224.172 239.902 223.092 240.947C222.012 241.993 220.775 243.071 220.342 243.344C219.909 243.617 217.181 245.913 214.28 248.447C211.378 250.982 208.158 253.786 207.124 254.68C204.077 257.311 205.113 256.872 211.126 252.985C212.627 252.014 214.332 250.915 214.916 250.539C218.5 248.238 222.732 245.442 223.251 245.033C223.585 244.771 224.471 244.199 225.222 243.766C225.972 243.331 228.087 241.992 229.92 240.789C234.137 238.023 254.356 224.874 257.266 223.007C258.468 222.235 262.379 219.684 265.956 217.338C269.534 214.993 273.356 212.525 274.449 211.855C275.542 211.185 276.439 210.555 276.443 210.455C276.447 210.354 276.996 210.025 277.662 209.723C279.124 209.061 279.176 208.597 278.008 206.621C276.468 204.015 273.722 198.896 273.722 198.632C273.722 197.562 272.786 197.731 271.097 199.109ZM104.499 217.115C103.705 218.578 102.377 220.94 101.545 222.364C99.6004 225.697 99.5995 225.691 102.232 226.747C103.439 227.23 105.108 227.929 105.942 228.3C108.772 229.561 111.083 230.534 117.916 233.342C121.667 234.884 125.322 236.409 126.038 236.732C126.754 237.054 129.482 238.185 132.1 239.246C134.718 240.306 137.952 241.661 139.286 242.256C140.62 242.851 142.393 243.571 143.226 243.854C144.674 244.348 148.971 246.142 159.595 250.691C162.262 251.833 165.4 253.14 166.567 253.595C167.734 254.05 169.507 254.791 170.507 255.241C171.508 255.692 173.827 256.65 175.661 257.37C177.494 258.091 179.247 258.812 179.556 258.972C179.863 259.133 180.185 259.194 180.27 259.108C180.502 258.875 174.69 255.253 170.205 252.835C169.371 252.385 168.211 251.708 167.628 251.329C167.045 250.951 165.203 249.765 163.536 248.694C161.869 247.623 160.368 246.633 160.201 246.496C160.034 246.358 159.656 246.152 159.359 246.038C159.062 245.925 158.176 245.417 157.388 244.909C156.602 244.402 153.502 242.507 150.501 240.699C147.501 238.89 142.862 236.094 140.195 234.484C114.995 219.276 106.853 214.445 106.434 214.45C106.13 214.453 105.388 215.476 104.499 217.115ZM280.239 218.401C276.642 220.523 273.343 222.403 270.842 223.757C269.842 224.299 268.342 225.112 267.507 225.564C266.674 226.018 264.472 227.264 262.615 228.335C260.757 229.408 259.152 230.284 259.047 230.284C258.942 230.284 258.348 230.605 257.726 230.997C257.104 231.389 255.913 232.088 255.08 232.551C254.246 233.014 252.268 234.115 250.685 234.998C245.838 237.699 242.247 239.672 234.922 243.653C232.671 244.875 230.353 246.189 229.769 246.572C228.033 247.709 221.101 251.578 214.31 255.2C211.624 256.632 206.731 259.516 206.731 259.666C206.731 259.798 212.626 257.679 216.431 256.179C217.348 255.817 218.78 255.27 219.614 254.963C220.448 254.655 224.539 253.073 228.707 251.448C232.876 249.823 237.445 248.047 238.862 247.5C240.28 246.953 242.735 245.997 244.319 245.375C245.903 244.754 247.744 244.065 248.411 243.846C249.077 243.626 251.601 242.665 254.019 241.711C256.436 240.757 259.846 239.427 261.597 238.758C269.109 235.885 271.219 235.059 272.43 234.515C273.137 234.199 273.789 233.939 273.878 233.939C274.23 233.939 289.349 228.069 289.599 227.835C289.985 227.474 284.143 216.582 283.574 216.602C283.407 216.608 281.906 217.418 280.239 218.401ZM91.9898 238.737C90.8685 240.705 89.429 243.201 88.7898 244.283C88.1505 245.364 87.6646 246.286 87.7092 246.332C87.7538 246.377 92.7619 247.311 98.837 248.406C104.912 249.503 112.202 250.82 115.036 251.335C117.87 251.848 123.94 252.945 128.525 253.771C133.11 254.596 138.293 255.538 140.044 255.862C143.028 256.417 147.014 257.116 150.501 257.696C153.218 258.148 164.328 260.136 169.447 261.085C175.967 262.294 179.552 262.877 179.68 262.748C179.764 262.663 172.32 260.175 154.139 254.211C152.972 253.828 149.971 252.873 147.47 252.089C143.66 250.893 125.853 245.119 123.372 244.273C122.955 244.13 119.34 242.972 115.339 241.697C111.337 240.423 105.157 238.431 101.603 237.27C93.4574 234.607 94.4274 234.459 91.9898 238.737ZM292.212 235.754C291.296 236.057 289.318 236.68 287.817 237.138C284.755 238.074 281.067 239.227 275.692 240.929C273.691 241.563 270.35 242.591 268.266 243.214C266.181 243.838 262.908 244.875 260.991 245.52C259.073 246.166 254.65 247.611 251.162 248.733C247.674 249.856 244.223 251.039 243.491 251.364C242.761 251.689 240.568 252.411 238.618 252.969C236.668 253.527 234.05 254.322 232.8 254.736C231.55 255.151 229.094 255.933 227.344 256.476C218.005 259.37 210.966 261.76 210.651 262.141C210.221 262.661 210.043 262.685 219.007 261.051C221.675 260.564 224.676 260.028 225.676 259.858C226.677 259.688 229.473 259.197 231.891 258.766C234.308 258.335 237.855 257.707 239.772 257.37C241.689 257.034 243.974 256.627 244.849 256.467C245.724 256.307 247.157 256.049 248.032 255.894C248.907 255.739 254.603 254.709 260.687 253.604C266.772 252.498 277.481 250.564 284.482 249.303C291.485 248.043 297.999 246.844 298.961 246.638L300.707 246.266L297.596 240.806C294.107 234.68 294.46 235.012 292.212 235.754ZM79.4943 260.43C77.6193 263.766 76.0847 266.64 76.0847 266.818C76.0847 267.046 92.8347 267.132 132.389 267.109C163.358 267.091 188.15 266.968 187.482 266.836C185.564 266.455 179.759 265.666 173.994 265.003C171.076 264.666 167.802 264.265 166.719 264.109C165.635 263.954 163.18 263.668 161.262 263.475C159.345 263.281 154.435 262.725 150.35 262.237C146.265 261.75 139.445 260.937 135.194 260.43C130.942 259.924 122.349 258.888 116.097 258.129C104.221 256.685 102.871 256.524 95.9387 255.724C93.6049 255.455 90.1536 255.036 88.2699 254.791C82.4809 254.042 83.4296 253.432 79.4943 260.43ZM303.882 254.558C303.383 254.622 300.31 255.012 297.055 255.424C291.051 256.182 289.074 256.41 269.63 258.595C252.077 260.565 250.356 260.76 247.805 261.065C242.069 261.748 240.237 261.962 235.074 262.556C232.072 262.9 228.321 263.327 226.737 263.504C225.153 263.681 222.971 263.95 221.887 264.102C220.804 264.254 217.393 264.66 214.31 265.004C207.396 265.778 201.975 266.528 200.972 266.851C200.555 266.984 225.415 267.104 256.217 267.118C304.757 267.138 312.219 267.084 312.219 266.703C312.219 266.291 307.354 257.602 306.118 255.808C305.806 255.354 305.55 254.839 305.55 254.665C305.55 254.491 305.379 254.369 305.171 254.393C304.963 254.419 304.383 254.493 303.882 254.558Z" fill="#EA493D"/>
<path fill-rule="evenodd" clip-rule="evenodd" d="M83.006 274.993C82.9507 275.122 81.7149 276.02 80.2599 276.987C78.8049 277.954 77.4411 278.912 77.2287 279.115C76.2829 280.02 72.7347 282.677 72.4718 282.677C71.8374 282.677 71.8296 283.347 72.4504 284.357C73.1391 285.477 73.6562 285.664 74.3274 285.038C75.1121 284.305 77.6002 282.691 77.605 282.912C77.6079 283.033 78.2055 283.771 78.933 284.55C83.5657 289.512 89.8164 285.038 86.5271 279.117C85.0314 276.426 83.2737 274.367 83.006 274.993ZM304.884 276.515C304.259 277.256 300.398 282.908 300.398 283.082C300.398 283.162 302.205 284.498 304.413 286.053C306.622 287.608 309.272 289.477 310.302 290.206L312.175 291.532L313.106 290.171C314.32 288.398 314.49 288.703 311.05 286.484C310.79 286.316 310.398 286.015 310.178 285.813C309.959 285.612 308.622 284.673 307.208 283.727L304.635 282.008L306.002 280.043C307.587 277.764 307.58 277.796 306.687 276.987C305.618 276.02 305.359 275.953 304.884 276.515ZM83.9653 280.087C85.4581 282.515 83.2727 284.35 80.9059 282.656C79.7681 281.842 79.805 281.474 81.1164 280.545C81.7081 280.126 82.3522 279.617 82.5481 279.414C83.0894 278.853 83.2553 278.932 83.9653 280.087ZM86.5426 286.339C81.4773 287.942 79.4606 293.949 82.5996 298.084C87.7794 304.908 99.1992 296.797 94.7022 289.487C92.9514 286.642 89.6311 285.361 86.5426 286.339ZM297.771 286.724C291.959 290.004 292.449 297.827 298.645 300.653C304.371 303.264 310.569 296.268 307.364 290.81C305.489 287.616 300.19 285.358 297.771 286.724ZM91.7408 290.215C93.3908 292.002 92.0929 295.142 89.0549 296.715C84.4319 299.11 82.3765 294.047 86.5426 290.525C88.2246 289.103 90.5827 288.963 91.7408 290.215ZM301.546 290.266C303.577 291.32 305.011 293.101 305.168 294.765C305.572 299.046 300.368 299.011 297.463 294.716C295.365 291.613 298.196 288.528 301.546 290.266ZM288.939 296.399C288.208 296.695 283.725 301.098 283.725 301.522C283.725 301.657 285.931 304.061 288.628 306.863L293.529 311.958L294.751 310.73L295.974 309.502L294.245 307.75C292.266 305.745 292.271 305.76 293.243 304.992C297.742 301.436 294.164 294.293 288.939 296.399ZM95.6499 297.468C93.9883 298.297 92.4538 299.631 92.4538 300.248C92.4538 300.469 92.35 300.649 92.2229 300.649C91.8553 300.649 91.1647 301.923 90.9047 303.081C90.3664 305.479 91.9416 308.63 94.7488 310.776C96.5549 312.155 96.3629 312.162 97.3814 310.682L98.2166 309.469L97.5327 309.201C94.515 308.017 93.5848 304.358 95.6761 301.903C97.7093 299.516 100.175 299.513 102.484 301.895L103.898 303.354L104.904 302.811C106.266 302.077 106.282 301.846 105.07 300.388C102.143 296.869 98.8829 295.858 95.6499 297.468ZM291.606 300.04C292.437 300.874 291.736 303.679 290.694 303.692C290.406 303.696 287.969 301.19 287.969 300.891C287.969 299.662 290.614 299.043 291.606 300.04ZM280.725 303.656C279.479 304.694 279.558 305.45 281.084 307.045C282.528 308.556 282.879 310.091 281.779 310.091C281.579 310.091 281.033 310.49 280.569 310.977C279.239 312.373 278.698 312.359 277.666 310.901C275.546 307.91 275.466 307.874 273.745 309.126L272.56 309.988L273.961 311.791C274.731 312.783 276.721 315.308 278.381 317.402C280.042 319.496 281.443 321.262 281.493 321.327C281.582 321.442 282.421 320.904 283.52 320.028C284.186 319.497 283.784 318.494 282.268 316.901C281.105 315.68 280.544 314.642 280.914 314.393C281.069 314.289 281.813 313.689 282.568 313.062C284.404 311.531 284.606 311.583 286.432 314.052C288.274 316.54 287.979 316.433 289.661 315.22L290.996 314.256L290.189 313.164C288.101 310.336 282.19 302.95 281.948 302.866C281.841 302.829 281.291 303.184 280.725 303.656ZM106.454 304.218C105.587 305.3 105.59 305.311 107.004 306.436C108.846 307.902 108.74 308.137 104.072 312.962C100.733 316.415 100.691 316.509 102.016 317.679C103.461 318.954 103.57 318.915 105.562 316.401C106.521 315.192 107.786 313.655 108.373 312.985C108.96 312.315 109.776 311.376 110.185 310.899L110.929 310.031L112.204 311.128C113.769 312.474 113.925 312.478 114.937 311.203L115.748 310.182L114.425 309.071C113.697 308.46 113.003 307.96 112.882 307.96C112.761 307.96 112.445 307.749 112.182 307.492C107.808 303.231 107.42 303.01 106.454 304.218ZM115.694 312.398C110.131 314.175 108.331 321.83 112.673 325.238C116.38 328.147 119.946 327.434 123.265 323.123C127.45 317.684 122.242 310.306 115.694 312.398ZM267.616 313.685C267.224 313.98 266.511 314.419 266.031 314.664C264.571 315.409 264.521 315.038 267.374 324.752L268.95 330.122L270.426 329.199C272.11 328.148 272.045 328.327 271.452 326.36C270.832 324.306 270.813 324.358 272.479 323.418C274.341 322.366 274.273 322.362 275.676 323.69L276.848 324.8L278.186 324.071C280.317 322.911 280.32 322.922 276.827 320.132C275.05 318.714 272.637 316.691 271.462 315.636C268.655 313.114 268.491 313.031 267.616 313.685ZM120.506 316.018C122.954 318.477 119.418 324.321 115.886 323.655C112.974 323.106 113.054 318.776 116.024 316.155C117.37 314.968 119.399 314.906 120.506 316.018ZM270.357 318.741L272.278 320.69L271.164 321.221C269.713 321.913 269.768 321.988 268.428 317.478C268.144 316.519 268.204 316.559 270.357 318.741ZM258.513 319.043C256.567 320.068 254.88 321.001 254.766 321.118C254.573 321.313 260.405 333.024 261.022 333.683C261.329 334.01 264.023 332.82 264.023 332.358C264.023 332.202 262.931 329.952 261.598 327.358C258.673 321.67 258.688 322.27 261.445 320.954C262.696 320.357 263.719 319.798 263.719 319.711C263.719 319.353 262.43 317.101 262.248 317.14C262.141 317.163 260.46 318.02 258.513 319.043ZM127.184 318.696C126.939 319.074 126.404 320.142 125.996 321.071C125.588 321.999 124.489 324.025 123.555 325.574C122.621 327.122 121.856 328.476 121.856 328.583C121.856 328.69 121.635 329.022 121.365 329.322C120.65 330.117 120.941 330.509 123.261 331.895C129.478 335.603 134.124 333.677 132.316 328.14C132.129 327.568 132.202 327.455 132.764 327.455C133.957 327.455 135.498 325.576 135.498 324.122C135.498 321.362 128.444 316.76 127.184 318.696ZM131.061 322.298C133.042 323.865 130.97 326.003 128.889 324.538L128.208 324.059L128.877 322.863C129.642 321.496 129.946 321.417 131.061 322.298ZM247.513 324.276C246.686 324.687 245.884 325.151 245.73 325.305C245.39 325.646 247.049 339.22 247.508 339.85C248.112 340.68 250.772 339.242 250.577 338.192C249.981 334.974 249.911 335.22 251.629 334.503C253.738 333.622 254.028 333.672 255.073 335.092C256.046 336.413 256.205 336.434 258.356 335.531C259.758 334.943 259.76 334.955 257.925 332.938C257.088 332.015 254.894 329.514 253.051 327.378C249.346 323.085 249.609 323.232 247.513 324.276ZM142.23 328.292C141.692 329.758 141.252 331.169 141.254 331.43C141.255 331.689 141.121 332.038 140.954 332.206C140.665 332.496 138.183 339.089 138.313 339.218C138.592 339.492 141.585 340.45 141.675 340.295C141.74 340.185 141.889 339.616 142.008 339.03C142.127 338.443 142.484 337.51 142.802 336.955C143.119 336.402 143.379 335.758 143.379 335.526C143.379 334.835 143.883 334.728 144.949 335.194C145.502 335.436 146.46 335.818 147.076 336.043L148.199 336.452L147.304 339.021C146.201 342.188 146.189 341.974 147.507 342.528C148.843 343.089 149.724 343.119 149.879 342.608C149.943 342.399 150.972 339.486 152.168 336.136C153.363 332.785 154.364 329.931 154.392 329.795C154.452 329.498 151.563 328.332 151.247 328.528C151.126 328.603 150.646 329.763 150.181 331.105C149.247 333.802 149.275 333.781 147.686 332.98C147.067 332.669 146.186 332.323 145.727 332.213C144.71 331.967 144.706 331.806 145.647 329.129C146.581 326.475 146.6 326.701 145.379 326.118C143.51 325.226 143.305 325.368 142.23 328.292ZM129.198 328.545C129.986 330.283 127.428 331.591 125.822 330.272L125.173 329.738L125.763 328.582C126.796 326.557 126.953 326.458 127.976 327.19C128.471 327.544 129.021 328.154 129.198 328.545ZM236.793 328.318L231.843 330.044L231.994 331.222C232.213 332.928 232.499 333.087 234.281 332.491C236.276 331.826 236.231 331.781 237.51 335.757C238.369 338.426 239.647 341.622 240.26 342.629C240.292 342.683 240.571 342.58 240.879 342.401C241.187 342.222 241.797 341.948 242.234 341.793C243.16 341.465 243.003 340.394 241.454 336.507C241.012 335.396 240.404 333.594 240.102 332.502L239.555 330.518L241.215 330.034L242.875 329.548L242.677 328.302C242.462 326.959 242.282 326.526 241.952 326.567C241.837 326.58 239.515 327.369 236.793 328.318ZM250.647 329.504L252.212 331.401L251.108 331.864C249.572 332.51 249.628 332.555 249.181 330.272C248.959 329.141 248.708 328.026 248.623 327.793C248.316 326.967 249.106 327.634 250.647 329.504ZM134.275 328.85C133.833 330.018 134.479 330.512 138.46 332.051C139.089 332.295 140.538 330.491 140.023 330.106C139.603 329.792 135.347 328.064 134.996 328.064C134.763 328.064 134.438 328.418 134.275 328.85ZM157.363 333.568C156.507 334.92 155.806 336.106 155.806 336.204C155.806 336.302 155.492 336.806 155.108 337.325C154.724 337.843 153.816 339.228 153.09 340.4C152.365 341.573 151.577 342.832 151.341 343.2C150.928 343.839 150.964 343.881 152.221 344.208C152.943 344.395 153.757 344.613 154.031 344.693C154.386 344.795 154.718 344.446 155.184 343.481C156.123 341.531 156.345 341.413 158.087 341.94C160.012 342.523 160.09 342.619 160.315 344.698L160.505 346.453L162.018 346.841C162.851 347.054 163.643 347.116 163.779 346.979C164.011 346.746 163.507 332.35 163.258 332.099C163.079 331.918 159.952 331.117 159.41 331.113C159.127 331.111 158.264 332.145 157.363 333.568ZM223.137 332.328C221.807 332.644 221.665 332.92 221.417 335.664C221.303 336.928 221.12 338.507 221.012 339.173L220.813 340.383L218.929 337.345C217.893 335.675 216.927 334.126 216.782 333.904C216.531 333.519 212.794 333.957 212.794 334.37C212.794 334.445 213.442 335.352 214.233 336.384C215.563 338.119 216.744 339.78 218.791 342.797L219.591 343.976L218.753 344.701C218.291 345.099 217.648 345.426 217.324 345.426C216.587 345.426 216.436 348.071 217.157 348.349C218.792 348.98 222.188 346.545 222.737 344.349C223.412 341.652 224.364 337.218 224.74 335.031C224.96 333.753 225.234 332.554 225.351 332.365C225.593 331.972 224.705 331.957 223.137 332.328ZM176.013 336.799C175.541 338.11 174.769 340.004 174.298 341.009C173.826 342.014 173.209 343.419 172.927 344.132C172.493 345.222 172.279 345.426 171.567 345.426C170.803 345.426 170.024 347.739 170.552 348.438C170.635 348.547 185.013 349.978 185.095 349.884C185.62 349.285 185.317 346.644 184.722 346.644C183.906 346.644 183.924 346.699 182.436 339.562L181.435 334.765H180.025C179.25 334.765 178.224 334.686 177.745 334.591C176.895 334.42 176.853 334.476 176.013 336.799ZM208.161 337.306L208.33 340.153L206.104 340.34C203.402 340.568 203.582 340.741 203.398 337.711L203.245 335.221L201.502 335.131L199.76 335.039L199.764 336.044C199.766 336.597 199.97 339.791 200.216 343.141C200.462 346.492 200.665 349.337 200.667 349.462C200.669 349.729 202.836 349.771 203.495 349.517C203.865 349.374 203.916 348.822 203.78 346.354L203.616 343.364L206.007 343.23C208.914 343.065 208.57 342.713 208.806 346.09L209.005 348.929L210.369 349.008C212.777 349.149 212.799 348.951 211.687 336.516L211.503 334.46H209.748H207.992L208.161 337.306ZM160.354 337.241V339.718L159.243 339.537C157.595 339.269 157.571 339.066 158.915 336.821C160.434 334.285 160.354 334.261 160.354 337.241ZM189.518 335.413C185.915 336.457 183.803 342.534 185.765 346.209C188.823 351.939 196.664 351.144 198.683 344.898C200.632 338.87 195.591 333.653 189.518 335.413ZM229.864 336.336C228.854 336.842 228.25 338.319 228.618 339.383C229.567 342.115 233.728 341.525 233.699 338.662C233.681 336.778 231.555 335.488 229.864 336.336ZM193.759 338.434C195.321 339.151 195.827 343.594 194.577 345.626C192.052 349.731 187.664 345.958 189.003 340.832C189.65 338.354 191.523 337.41 193.759 338.434ZM179.615 342.686C179.876 344.565 180.048 346.128 179.997 346.158C179.947 346.187 179.052 346.16 178.011 346.097C176.002 345.974 175.77 345.731 176.447 344.458C176.63 344.116 177.046 342.871 177.37 341.692C178.569 337.344 178.893 337.489 179.615 342.686ZM165.406 338.927C165.294 339.039 165.204 339.56 165.204 340.084V341.039L167.994 341.392C171.205 341.8 170.92 341.879 171.03 340.546L171.114 339.506L168.689 339.138C165.68 338.682 165.652 338.68 165.406 338.927Z" fill="#8CA1B0"/>
</svg>
