<svg width="18" height="15" viewBox="0 0 18 15" fill="none" xmlns="http://www.w3.org/2000/svg">
<path d="M6.98361 15C7.6918 15 8.30164 14.7164 8.71475 14.1657L17.5082 2.50278C17.7639 2.15239 18 1.75195 18 1.38487C18 0.550612 17.1344 0 16.2098 0C15.6197 0 15.0885 0.283648 14.6754 0.83426L6.90492 11.4127L3.2459 7.45829C2.77377 6.94105 2.30164 6.75751 1.71148 6.75751C0.747541 6.75751 0 7.42492 0 8.24249C0 8.64294 0.177049 9.01001 0.511475 9.3604L5.1541 14.1824C5.68525 14.7497 6.25574 15 6.98361 15Z" fill="#0FAF45"/>
</svg>
