<svg width="374" height="374" viewBox="0 0 374 374" fill="none" xmlns="http://www.w3.org/2000/svg">
<path fill-rule="evenodd" clip-rule="evenodd" d="M188.445 11.761C188.516 12.2367 188.931 12.5349 189.991 12.8712L191.438 13.3313L191.437 15.6473C191.436 16.9213 191.306 19.4722 191.147 21.3145C190.989 23.1577 190.697 26.5849 190.5 28.9302C190.019 34.6383 189.801 35.1608 187.894 35.1695C186.834 35.1754 186.096 35.8372 186.367 36.541C186.5 36.89 187.047 37.0021 188.61 37.003C189.746 37.004 192.253 37.1483 194.18 37.3247C199.877 37.8452 199.511 37.8667 199.511 37.0138C199.511 36.3958 199.307 36.2154 198.354 35.9893C196.4 35.5282 196.241 34.9873 196.63 30.1213C197.019 25.2476 196.97 25.3957 198.102 25.7203C198.579 25.8568 200.839 26.0693 203.126 26.1921L207.281 26.4144V27.315C207.281 29.8299 206.577 35.6754 206.23 36.0351C206.017 36.2573 205.267 36.5166 204.565 36.6112C203.483 36.7554 203.303 36.8792 203.381 37.4251C203.475 38.084 205.675 38.3755 214.29 38.8687C216.957 39.0217 217.396 38.0207 214.989 37.2721L213.527 36.8188L213.531 33.3312C213.537 26.7136 214.145 17.204 214.644 15.9154C214.888 15.2866 215.235 15.041 216.075 14.9016C217.777 14.6199 217.946 14.5263 217.946 13.8616C217.946 13.3674 217.746 13.2416 216.955 13.2377C215.834 13.2319 209.548 12.7357 206.9 12.4433C204.605 12.1899 204.099 13.6208 206.35 14.001C208.259 14.3236 208.316 14.5117 207.931 19.2314C207.743 21.5192 207.529 23.4531 207.453 23.5291C207.166 23.8157 197.678 22.9082 197.456 22.5729C197.097 22.029 197.834 14.3616 198.288 13.9074C198.38 13.8148 199.037 13.6617 199.745 13.5672C200.771 13.4298 201.055 13.2592 201.129 12.7338C201.235 11.9871 201.498 12.0329 193.723 11.4306C188.119 10.9968 188.329 10.9831 188.445 11.761ZM169.043 12.6636C168.205 12.8079 165.694 13.1208 163.463 13.3586C159.005 13.8323 158.997 13.8353 159.286 14.7427C159.449 15.2564 159.737 15.3754 160.83 15.3754C162.952 15.3754 163.589 17.4106 164.165 26.0362C164.259 27.4603 164.466 29.4478 164.622 30.4527C165.471 35.8889 165.213 37.0995 163.086 37.6444C161.32 38.0967 160.822 39.6729 162.493 39.5227C167.778 39.0451 173.361 38.4398 174.803 38.1873C188.864 35.7222 187.252 20.3134 173.161 22.4998C169.693 23.0378 170.044 23.3429 169.64 19.44C169.177 14.9484 169.253 14.6287 170.919 14.0975C171.667 13.8586 172.271 13.5682 172.26 13.4532C172.25 13.3372 172.243 13.0369 172.243 12.7854C172.243 12.2727 171.473 12.2435 169.043 12.6636ZM226.172 15.3754C226.172 15.542 226.158 15.773 226.141 15.8871C226.123 16.0021 226.638 16.3901 227.283 16.7497C228.939 17.6738 228.894 19.4654 227.069 25.2749C226.912 25.7769 226.357 27.8336 225.837 29.8435C223.581 38.5694 223.765 38.2205 221.448 38.2205C219.746 38.2205 219.521 38.2916 219.366 38.8823C219.13 39.7859 219.282 39.9448 220.608 40.1934C221.238 40.3123 222.714 40.7285 223.886 41.1204C234.978 44.8215 239.859 44.4901 242.732 39.8415C246.069 34.4443 243.242 30.0121 235.173 27.9856C232.741 27.3755 232.728 27.3345 233.79 23.7991C235.033 19.6613 235.048 19.6399 236.836 19.6399C239.002 19.6399 239.819 18.283 237.863 17.9331C237.382 17.8473 236.509 17.6563 235.922 17.51C235.335 17.3629 233.964 17.0236 232.875 16.7546C231.786 16.4866 230.131 15.9982 229.198 15.6687C227.343 15.0137 226.172 14.9006 226.172 15.3754ZM140.692 18.3844C140.292 18.7538 138.049 19.4751 137.584 19.3835C137.313 19.3299 137.203 19.8377 137.203 21.142C137.203 23.7211 136.348 35.8402 135.863 40.1398C135.419 44.0641 134.532 45.8566 132.915 46.0945C132.518 46.153 131.919 46.3928 131.583 46.6277C130.643 47.2856 129.185 47.1375 127.876 46.2514C126.643 45.4161 121.242 40.8767 120.446 40.0052C119.981 39.4974 111.557 31.9948 110.65 31.2813C110.148 30.8865 108.562 31.3076 108.562 31.8359C108.562 31.9558 108.117 32.2316 107.572 32.449C107.028 32.6654 106.555 32.8574 106.523 32.875C106.49 32.8925 106.596 33.4511 106.757 34.1168C106.919 34.7826 107.119 35.8752 107.201 36.5449C107.283 37.2155 107.416 38.0519 107.494 38.4037C107.662 39.1504 107.741 39.6855 108.535 45.379C110.081 56.457 110.083 57.6969 108.554 59.2955C106.682 61.2537 107.569 61.7518 110.144 60.1874C111.215 59.5372 113.219 58.4377 114.599 57.7447C116.906 56.5847 117.081 56.4327 116.773 55.8576C116.57 55.4784 116.256 55.301 115.977 55.4082C113.338 56.42 112.801 56.0262 112.067 52.5376C111.427 49.4973 111.459 49.2653 112.6 48.7253C113.144 48.467 114.275 47.8481 115.114 47.349C117.255 46.074 117.313 46.0526 118.155 46.2641C118.849 46.4386 122.883 50.2703 122.883 50.7557C122.883 50.8717 122.451 51.3981 121.924 51.9254C120.041 53.8086 121.373 54.0864 124.285 52.4187C128.586 49.9545 134.571 47.0712 136.442 46.5624C137.447 46.2894 139.161 45.8342 140.25 45.5506C143.21 44.7815 143.423 43.3993 140.581 43.3993C138.224 43.3993 138.278 43.6128 138.544 35.3645C138.768 28.4175 138.974 26.0362 139.349 26.0362C139.481 26.0362 140.8 27.7634 142.281 29.8737C143.761 31.985 145.114 33.8692 145.289 34.0622C145.91 34.7523 147.562 37.3422 147.562 37.6269C147.562 37.7857 147.67 37.9164 147.801 37.9164C149.039 37.9164 149.345 40.8123 148.172 41.4186C147.323 41.8573 146.929 42.8739 147.486 43.1868C147.612 43.257 149.392 42.7989 151.441 42.1672C153.49 41.5366 156.198 40.7675 157.459 40.4585C159.614 39.9292 159.749 39.8473 159.75 39.0617C159.75 38.2468 159.713 38.2293 158.099 38.3004C155.862 38.3989 154.778 37.2106 146.344 25.4162C145.59 24.3615 144.835 23.3498 144.668 23.1684C144.5 22.9862 143.959 22.2892 143.466 21.6196C142.971 20.949 142.477 20.3319 142.365 20.2491C142.254 20.1653 141.935 19.6506 141.656 19.1067C141.091 18.0052 141.097 18.0091 140.692 18.3844ZM248.904 22.5583C248.639 23.2474 248.63 23.2338 249.624 23.7465C251.332 24.6306 251.45 26.1278 250.056 29.2801C249.823 29.8084 249.633 30.3981 249.633 30.5921C249.633 30.7851 249.378 31.5181 249.065 32.2209C248.753 32.9237 248.123 34.5272 247.665 35.7836C244.191 45.3118 244.212 45.2777 241.956 45.0106C241.021 44.8994 240.493 44.9531 240.493 45.1587C240.493 45.3361 240.409 45.6978 240.307 45.9629C240.18 46.2953 240.298 46.4454 240.688 46.4464C241 46.4473 241.647 46.653 242.127 46.9035C242.606 47.154 243.184 47.3587 243.408 47.3587C243.845 47.3587 250.529 49.8648 251.709 50.4711C252.28 50.7645 252.468 50.7499 252.695 50.3912C253.138 49.6894 253.058 49.5451 251.766 48.7292C250.545 47.9592 250.438 47.7769 250.487 46.5438C250.518 45.7621 255.408 32.2297 256.668 29.439L257.538 27.5119L258.951 27.5987C261.645 27.7644 261.837 26.4134 259.23 25.6385C258.393 25.3899 256.061 24.5428 254.051 23.7572C249.662 22.0416 249.148 21.9217 248.904 22.5583ZM175.127 25.2505C176.979 26.0245 178.685 30.093 178.195 32.564C178.126 32.911 177.996 33.5466 177.906 33.9755C177.392 36.4416 173.482 37.4914 171.902 35.5887C171.549 35.1637 170.427 27.8804 170.419 25.9601L170.415 24.8177H172.252C173.263 24.8177 174.556 25.0127 175.127 25.2505ZM278.275 28.5208C276.872 30.057 277.183 31.5981 279.323 33.7142C282.127 36.4845 287.651 36.7944 289.933 34.3098L290.614 33.569L288.633 33.7805C283.835 34.2952 281.18 32.7151 280.958 29.2138C280.832 27.2224 279.723 26.9358 278.275 28.5208ZM267.102 29.5589C266.989 29.8552 267.283 30.4108 267.874 31.021C269.415 32.6108 269.315 32.9949 265.875 38.6845C265.674 39.0159 264.577 40.7889 263.437 42.6254C262.297 44.4608 261.294 46.1072 261.211 46.2826C260.717 47.3188 258.345 50.4711 257.943 50.6251C257.681 50.7255 256.838 50.5754 256.068 50.2898C254.746 49.8005 254.649 49.8005 254.283 50.3005C253.834 50.9136 253.9 50.9916 255.727 52.0005C258.031 53.2735 259.528 54.1751 259.688 54.3867C259.771 54.4968 260.124 54.6762 260.471 54.7844C260.819 54.8925 261.369 55.2288 261.695 55.532C264.325 57.9815 266.999 58.116 264.871 55.6918C262.783 53.3164 263.722 52.2412 269.743 50.1163C272.172 49.2585 275.515 48.0762 277.17 47.4884C280.639 46.2583 280.715 46.2719 279.666 47.9329C279.235 48.6162 278.883 49.3141 278.883 49.4847C278.883 49.6562 278.749 49.7956 278.584 49.7956C278.419 49.7956 278.201 50.1329 278.097 50.5442C277.993 50.9565 277.708 51.4595 277.465 51.6622C277.22 51.866 276.841 52.4596 276.622 52.982C276.404 53.5045 276.035 54.1342 275.802 54.3818C275.569 54.6284 275.118 55.3429 274.798 55.9687C274.478 56.5945 274.101 57.1062 273.96 57.1062C273.818 57.1062 273.703 57.2856 273.703 57.5059C273.703 58.6561 272.451 59.313 270.649 59.1093C269.302 58.9572 268.864 59.0089 268.739 59.3354C268.592 59.7176 269.472 60.7615 269.942 60.7615C270.274 60.7615 275.373 63.8904 275.481 64.1604C275.536 64.3018 275.714 64.4168 275.874 64.4168C276.033 64.4168 276.872 64.8934 277.737 65.4754C279.901 66.9326 281.139 66.26 279.287 64.6342C277.663 63.2081 278.205 61.4877 282.236 55.2786C282.399 55.0271 282.813 54.3418 283.156 53.756C283.498 53.1692 284.151 52.1175 284.606 51.4176C285.061 50.7187 286.102 49.0431 286.919 47.695C288.693 44.7688 288.977 44.6294 291.578 45.3946C292.912 45.7874 293.041 44.5047 291.741 43.7814C291.121 43.4373 290.134 42.8876 289.547 42.5601C287.835 41.6058 283.351 38.7644 282.74 38.2468C282.228 37.813 282.142 37.8228 281.747 38.3628C281.36 38.8931 281.391 39.0188 282.05 39.5773C285.089 42.1497 283.772 43.1829 272.332 47.2086C269.819 48.0937 267.522 48.9154 267.228 49.0343C266.456 49.3492 266.501 49.2468 268.676 45.6948C269.765 43.9159 270.656 42.3914 270.656 42.3066C270.656 42.2218 271.342 41.1369 272.18 39.8961C273.018 38.6543 273.703 37.5167 273.703 37.3676C273.703 36.4513 274.953 35.9698 276.357 36.346C277.716 36.7096 278.249 36.5449 278.269 35.7544C278.273 35.5838 273.771 32.7678 272.79 32.3262C272.267 32.0923 271.331 31.4869 269.303 30.0726C267.703 28.9565 267.365 28.8775 267.102 29.5589ZM234.787 29.9673C237.915 31.3066 238.458 37.0001 235.77 40.2665C235.602 40.4692 235.288 40.8465 235.072 41.1038C234.362 41.9489 231.471 41.7315 230.575 40.7655C229.653 39.7703 229.653 39.7772 230.613 35.653C232.19 28.8814 232.205 28.86 234.787 29.9673ZM111.224 39.591C111.436 39.7586 112.44 40.6837 113.457 41.6477C114.473 42.6107 115.432 43.3993 115.589 43.3993C116.373 43.3993 115.664 44.1041 113.765 45.2133C111 46.8275 111.184 46.9513 110.435 42.9724C109.498 37.9934 109.452 38.1873 111.224 39.591ZM92.7841 40.8835C92.0655 41.1681 89.666 42.7511 87.4518 44.4023C85.2376 46.0536 82.2209 48.2341 80.7496 49.2497C78.2205 50.9936 78.1006 51.1252 78.5705 51.6447C79.0502 52.175 79.1175 52.1711 80.3811 51.5579L81.6925 50.9205L82.5953 51.6525C83.0916 52.0551 83.8229 52.8641 84.2206 53.4509C84.6184 54.0377 85.0299 54.5855 85.1352 54.6693C85.2395 54.7532 85.7212 55.3838 86.2038 56.071C86.6874 56.7572 88.693 59.5538 90.6625 62.285C94.58 67.7192 94.7887 68.2895 93.45 69.8812C92.6758 70.8004 92.6368 71.7274 93.372 71.7274C93.5738 71.7274 94.9837 70.7936 96.5047 69.6512C99.9026 67.1003 102.353 65.3301 103.459 64.6293C105.334 63.4411 104.206 62.4254 102.144 63.4459C100.026 64.4938 99.6422 64.2443 96.2941 59.6542C94.7468 57.5322 92.8962 55.029 92.1825 54.0903C89.8298 50.9994 87.5064 47.2983 87.6 46.7914C88.0271 44.4959 94.1042 44.9267 95.7656 47.3704C96.0172 47.7399 96.3994 48.2263 96.6149 48.4514C98.3825 50.2956 98.3289 53.1604 96.494 54.8682L95.09 56.1753L95.9012 56.5448C97.2252 57.1481 100.425 54.6362 101.782 51.9284C104.635 46.2339 98.4479 38.6387 92.7841 40.8835ZM69.5518 57.7876C68.4685 59.005 65.2862 62.3435 62.4791 65.2083C57.7231 70.0616 57.413 70.4476 57.9093 70.8891C58.3948 71.3209 58.5353 71.2975 59.4995 70.6308C61.2711 69.4065 61.7225 69.6405 66.8208 74.4236C77.1422 84.1086 77.2475 84.2597 75.3589 86.6449C74.4892 87.7415 74.4746 87.8107 75.002 88.2874C75.6241 88.8508 75.9614 88.9229 75.9614 88.4921C75.9614 88.3303 76.4938 87.6791 77.146 87.0446C82.4549 81.8784 90.2812 73.4595 90.2812 72.9146C90.2812 72.0266 87.4401 66.8537 86.9526 66.8537C86.0741 66.8537 85.6305 67.7085 85.9903 68.7106C87.3299 72.4468 86.9945 73.7588 83.9525 76.6772C81.0636 79.4493 80.8354 79.4308 77.4083 76.1664C74.2581 73.1652 74.2493 73.1125 76.4567 70.7994C78.4526 68.7076 78.9557 68.4815 80.1959 69.1229C83.8784 71.0266 80.8384 65.6079 76.99 63.4079C75.7576 62.7032 75.3121 63.4791 76.1399 64.8915L76.9286 66.2376L76.3105 67.2309C75.9692 67.7777 74.9572 68.9465 74.0602 69.8276L72.429 71.432L69.4514 68.6267C65.7308 65.1225 65.6908 65.0504 66.7506 63.8125C70.0344 59.9729 71.3468 59.4242 73.8584 60.8375C75.0381 61.5013 75.0888 61.5052 75.5002 60.9564C75.8776 60.4535 72.7781 56.1276 71.7026 55.6558C71.6032 55.6119 70.635 56.5711 69.5518 57.7876ZM307.804 58.811C307.465 59.2185 307.475 59.3393 307.865 59.5577C309.757 60.6153 309.059 64.332 304.437 77.8196C302.944 82.1738 302.996 82.0958 301.496 82.2966C300.001 82.4974 298.677 81.3735 297.531 78.9327C296.763 77.2942 296.647 77.3049 294.974 79.1579C292.778 81.5899 294.508 84.3221 298.505 84.7344C300.008 84.8894 305.383 83.8737 306.152 83.2889C306.32 83.1622 307.074 82.8951 307.828 82.6953C308.582 82.4964 309.61 82.1543 310.114 81.934C310.616 81.7137 312.056 81.1552 313.313 80.6921C314.569 80.2291 316.421 79.4737 317.426 79.0117C322.689 76.5972 323.921 76.3272 325.652 77.2104C326.854 77.8235 328.053 77.7679 327.879 77.108C327.654 76.2561 321.021 70.1883 320.523 70.3793C319.844 70.6396 319.882 70.9535 320.743 72.2216C322.072 74.176 321.515 74.7433 315.533 77.5252C311.05 79.6102 310.179 79.7827 310.585 78.5048C314.268 66.9395 314.433 66.5807 315.723 67.343C316.57 67.844 316.71 67.8518 317.134 67.4288C317.557 67.0057 317.153 66.532 313.053 62.6418C308.051 57.8977 308.369 58.1297 307.804 58.811ZM328.018 78.9337C327.728 79.0507 327.745 79.2866 328.095 79.9601C329.006 81.7234 328.718 82.4642 326.464 84.1428C325.85 84.5999 325.279 85.059 325.196 85.1623C325.112 85.2657 324.57 85.5922 323.992 85.8885C323.414 86.1848 322.775 86.5933 322.572 86.795C322.37 86.9978 321.472 87.6226 320.576 88.1841C319.681 88.7455 317.51 90.1374 315.75 91.2779C311.787 93.8473 310.889 94.0725 309.558 92.8355C307.864 91.2604 306.923 92.0801 308.224 93.9974C310.468 97.3018 312.717 100.697 313.491 101.948C314.405 103.426 314.678 103.594 315.418 103.126C315.782 102.895 315.77 102.695 315.341 101.79C314.353 99.7065 314.508 99.4473 318.264 96.9178C322.582 94.0091 322.578 94.0111 323.266 95.0823C323.57 95.5561 324.039 96.1858 324.307 96.4821C324.574 96.7784 324.986 97.3944 325.223 97.8526C325.459 98.3107 325.872 98.9297 326.142 99.2289C326.411 99.5272 326.89 100.314 327.208 100.977C327.525 101.639 327.888 102.182 328.014 102.184C328.139 102.186 328.243 102.308 328.243 102.455C328.243 102.774 324.095 105.844 323.665 105.844C323.501 105.844 323.368 105.956 323.368 106.092C323.368 107.47 319.855 107.93 318.602 106.716C317.692 105.835 317.579 105.8 317.121 106.257C316.551 106.828 316.505 106.73 318.848 110.003C319.826 111.369 320.625 112.638 320.625 112.821C320.625 113.004 320.74 113.154 320.881 113.154C321.022 113.154 321.501 113.805 321.943 114.601C323.185 116.831 323.776 117.476 324.37 117.249C324.997 117.008 325.013 116.603 324.433 115.591C323.298 113.605 323.568 113.338 333.221 106.913C341.024 101.719 341.634 101.477 343.182 102.959C343.691 103.447 344.173 103.659 344.493 103.536C345.124 103.295 345.145 102.688 344.543 102.188C344.291 101.98 344.086 101.632 344.086 101.415C344.086 101.198 343.967 100.975 343.82 100.919C343.538 100.811 340.248 95.9596 339.414 94.4205C337.922 91.6697 336.264 91.931 337.588 94.708C338.231 96.0551 338.042 96.2939 334.185 99.0281C330.514 101.629 330.687 101.676 327.811 97.2658C324.577 92.3092 324.545 92.7078 328.357 90.2125C331.879 87.9053 332.523 87.6401 333.158 88.2289C334.718 89.6774 334.896 89.769 335.342 89.3528C335.714 89.0048 335.466 88.4862 333.612 85.7443C332.422 83.9819 331.309 82.317 331.139 82.0431C330.971 81.7692 330.442 80.9124 329.966 80.1395C329.131 78.7865 328.836 78.6033 328.018 78.9337ZM45.3045 85.0727C45.3884 85.2091 45.1222 85.7101 44.7127 86.1868C43.685 87.3828 44.192 88.455 48.171 93.5071C49.0173 94.5823 52.8052 100.445 52.8052 100.681C52.8052 100.84 52.93 100.97 53.0831 100.97C53.5628 100.97 57.375 107.223 57.375 108.008C57.375 108.419 57.1556 109.068 56.8865 109.451C56.6184 109.834 56.4468 110.19 56.5063 110.242C56.869 110.558 63.9377 113.763 64.2751 113.763C64.5023 113.763 64.6875 113.901 64.6875 114.068C64.6875 114.564 65.253 114.415 65.5591 113.839C65.7844 113.415 65.4743 112.904 64.0469 111.34C63.0593 110.258 62.173 109.127 62.0774 108.827C61.9819 108.526 61.7761 108.28 61.6201 108.28C61.1726 108.28 61.2887 106.943 61.7927 106.286C62.9296 104.806 65.4275 101.366 66.0798 100.38C66.4757 99.7826 67.4204 98.4325 68.1809 97.3788C68.9405 96.3261 69.5625 95.3904 69.5625 95.3017C69.5625 93.8259 72.3988 94.2285 75.7108 96.1731C77.4142 97.1732 77.6677 97.1966 78.0976 96.3943C78.3862 95.8543 78.0918 95.4079 75.744 92.8151C74.2678 91.1853 72.7351 89.4405 72.3364 88.9375C71.7874 88.2445 71.5739 88.1334 71.4521 88.4774C71.3633 88.728 70.9275 89.2953 70.4829 89.7398L69.6756 90.5468L66.3431 89.8031C64.511 89.3937 61.8464 88.7991 60.4219 88.4814C58.9974 88.1636 55.1588 87.2122 51.8906 86.3661C45.8193 84.7939 45.0364 84.6399 45.3045 85.0727ZM59.2031 94.4702C62.1359 95.2393 64.7753 95.9362 65.0687 96.0181C66.0915 96.3037 65.9433 96.5951 61.548 102.926C59.2499 106.236 60.3283 107.12 51.3573 94.5667C49.3508 91.7584 48.8964 91.7643 59.2031 94.4702ZM34.0277 103.635C33.818 104.498 28.7939 114.61 26.5884 118.607C25.6251 120.353 25.434 120.919 25.7441 121.116C26.3856 121.521 26.566 121.439 27.58 120.285C28.8524 118.837 28.8299 118.83 37.0229 122.927C48.3621 128.598 48.2909 128.534 47.002 131.923C46.688 132.749 46.9795 133.247 47.7771 133.25C47.9448 133.25 49.7788 129.929 51.8516 125.868C53.9255 121.807 56.0061 117.8 56.4751 116.961C58.1072 114.049 58.0975 114.003 55.2368 111.268L52.7096 108.85L52.0905 109.469C51.5318 110.027 51.5162 110.139 51.9355 110.631C54.6918 113.868 54.7757 115.669 52.3674 119.856C50.6602 122.823 50.4008 122.859 46.0553 120.719C42.0695 118.757 42.1172 118.86 43.7543 115.783L45.0725 113.306H46.8158C48.444 113.306 49.1265 112.977 49.1441 112.18C49.146 112.063 47.8805 111.352 46.3302 110.598C44.78 109.845 43.0747 108.939 42.5414 108.585L41.5712 107.941L41.2222 108.593C40.8692 109.252 41.3314 110.145 42.3688 110.809C43.0376 111.236 42.7832 112.432 41.4884 114.958C40.0922 117.679 39.8231 117.818 38.146 116.679C37.5464 116.271 36.004 115.453 34.717 114.858C31.7588 113.492 31.7111 113.339 33.3062 110.308C35.2893 106.54 35.7232 106.269 38.4863 107.064C39.3687 107.318 39.6154 107.282 39.9313 106.853C40.3827 106.241 40.4217 105.844 40.0298 105.844C39.8747 105.844 38.7125 105.158 37.447 104.321C34.8067 102.572 34.3094 102.473 34.0277 103.635ZM347.287 109.799C347.186 109.965 347.234 110.578 347.396 111.163C347.961 113.211 348.044 113.143 341.192 116.133C340.019 116.645 338.441 117.27 337.688 117.522C336.934 117.774 335.494 118.352 334.489 118.807C328.947 121.311 327.454 121.31 325.957 118.802C325.757 118.467 325.463 118.364 325.103 118.503C324.483 118.742 324.627 120.126 325.387 121.218C325.617 121.549 325.805 122.062 325.805 122.361C325.805 122.658 325.942 122.902 326.109 122.902C326.277 122.902 326.415 123.09 326.415 123.32C326.415 123.55 326.671 124.338 326.986 125.071C327.3 125.804 327.932 127.406 328.39 128.63C329.509 131.622 330.527 131.746 330.527 128.893C330.527 127.031 331.108 126.293 332.596 126.264C333.001 126.255 344.252 129.49 347.99 130.689C348.685 130.912 348.12 131.329 346.15 132.05C345.098 132.434 344.101 132.839 343.933 132.949C343.766 133.06 342.395 133.601 340.887 134.152C339.378 134.703 337.871 135.271 337.535 135.415C334.528 136.713 333.586 136.683 332.825 135.261C332.376 134.422 330.984 134.142 330.984 134.892C330.984 135.12 331.402 136.251 331.913 137.405C332.423 138.559 332.953 139.777 333.09 140.112C333.228 140.447 333.484 141.064 333.659 141.483C334.056 142.429 335.155 145.41 335.374 146.128C335.544 146.686 336.071 146.808 336.672 146.425C336.94 146.256 336.944 145.833 336.687 144.713C336.271 142.893 336.798 142.343 340.242 141.015C341.434 140.555 342.89 139.971 343.477 139.716C344.063 139.462 344.612 139.23 344.696 139.2C344.779 139.171 345.19 139.001 345.609 138.821C354.548 134.99 356.503 134.552 357.493 136.152C358.138 137.197 359.081 137.548 359.485 136.894C359.595 136.717 359.466 136.329 359.198 136.032C358.93 135.737 358.711 135.357 358.711 135.187C358.711 135.018 358.025 133.286 357.188 131.338C356.35 129.39 355.665 127.671 355.665 127.518C355.665 127.366 355.459 126.748 355.207 126.147C354.524 124.512 353.836 124.954 353.836 127.029C353.836 130.432 352.658 130.372 339.748 126.311C335.378 124.936 335.359 125 340.73 122.841C349.951 119.133 350.176 119.084 351.167 120.61C351.788 121.565 352.509 121.788 353.164 121.226C353.212 121.184 352.89 120.345 352.446 119.36C351.642 117.576 349.05 111.044 348.746 110.032C348.573 109.46 347.595 109.304 347.287 109.799ZM30.1715 127.49C27.5585 128.125 25.4184 130.008 23.8379 133.063C22.7294 135.207 22.197 135.502 21.2756 134.484C20.8827 134.049 20.7774 133.591 20.9003 132.837C21.1089 131.549 20.0598 130.984 19.6006 132.14C19.1804 133.2 17.8485 137.824 17.4156 139.732C17.1962 140.695 16.9115 141.483 16.7819 141.483C16.3217 141.483 16.5557 142.639 17.0549 142.831C17.6233 143.049 17.9743 142.783 18.4959 141.737C18.765 141.197 19.1043 141.026 19.9077 141.026H20.9646L20.8613 143.92C20.5356 153.042 30.5021 158.523 36.1083 152.304C37.9335 150.278 38.2728 149.798 38.9573 148.261C40.02 145.874 41.4357 146.241 41.5946 148.943C41.6824 150.437 42.5453 151.324 42.8777 150.263C42.9479 150.04 43.2346 149.037 43.5163 148.032C43.7981 147.027 44.4953 144.754 45.0656 142.982C46.2327 139.352 46.2951 138.881 45.636 138.628C45.2168 138.466 43.9736 139.967 43.9697 140.639C43.9678 140.971 42.5706 141.259 41.9339 141.057C41.4338 140.899 41.3889 140.562 41.4835 137.661C41.7058 130.793 36.3589 125.986 30.1715 127.49ZM32.0582 133.403C36.7255 134.038 40.1156 136.808 39.71 139.656C39.6125 140.339 39.6758 140.343 36.7733 139.491C35.2844 139.053 31.9538 138.09 29.372 137.35C23.8721 135.774 24.1275 135.932 25.2263 134.785C26.3096 133.656 28.5004 132.915 30.1052 133.136C30.4406 133.182 31.3191 133.302 32.0582 133.403ZM26.1604 142.546C27.7272 142.962 30.3373 143.729 31.9607 144.249C33.584 144.768 35.2328 145.252 35.6237 145.323C36.0157 145.394 36.7031 145.592 37.1525 145.762L37.9696 146.072L37.1096 146.969C33.4817 150.755 22.6475 147.616 22.6416 142.778C22.6406 141.59 22.5841 141.594 26.1604 142.546ZM361.047 144.123C360.935 144.234 360.844 144.596 360.844 144.925C360.844 147.218 360.304 147.795 357.528 148.467C350.381 150.197 344.064 151.467 341.307 151.726L339.288 151.916L338.734 150.659C338.39 149.877 337.978 149.403 337.647 149.403C336.551 149.403 336.533 149.234 338.793 160.673C340.32 168.398 345.825 172.84 350.781 170.345C352.944 169.257 353.876 167.872 354.271 165.166C354.518 163.474 354.704 163.4 355.614 164.63C357.531 167.222 361.436 167.421 363.612 165.039C365.532 162.936 365.729 160.844 364.493 155.647C363.157 150.029 362.687 147.921 362.332 145.976C361.991 144.106 361.611 143.558 361.047 144.123ZM362.215 156.453C362.215 161.585 355.45 163.535 353.916 158.845C353.257 156.83 353.122 155.496 353.573 155.482C353.801 155.474 355.497 155.139 357.34 154.737C362.297 153.655 362.215 153.626 362.215 156.453ZM351.556 157.04C352.444 161.086 350.835 163.867 347.147 164.659C343.424 165.456 341.129 164.22 340.851 161.267C340.601 158.612 341.16 158.176 346.219 157.064C351.47 155.91 351.307 155.911 351.556 157.04ZM12.7619 171.906C12.6518 172.084 12.488 182.351 12.5679 184.051C12.6284 185.339 14.4146 183.772 14.4146 182.431C14.4146 180.167 20.015 182.393 22.7927 185.762C22.9604 185.966 24.1256 186.949 25.3833 187.947C26.6401 188.947 27.8462 189.931 28.0636 190.137C28.282 190.342 28.7558 190.719 29.1176 190.972C30.506 191.944 29.3915 192.109 22.5987 191.939C19.0185 191.849 15.8517 191.76 15.5602 191.74C14.8445 191.692 14.1094 190.578 14.1094 189.543C14.1094 188.806 13.9914 188.697 13.1958 188.697H12.2813L12.2267 194.332C12.1974 197.432 12.1623 200.276 12.1506 200.653C12.1038 202.122 13.7106 201.732 13.9622 200.214C14.3161 198.063 14.0333 198.137 21.8402 198.161C34.7755 198.2 36.3355 198.429 36.3472 200.29C36.3657 203.506 38.1597 202.353 38.1987 199.1C38.2163 197.65 38.2699 194.856 38.3176 192.89C38.3849 190.165 38.3079 189.234 37.992 188.973C37.3963 188.478 36.6572 188.867 36.6514 189.678C36.6407 191.434 35.027 192.654 33.5041 192.058C32.765 191.768 21.0299 182.067 20.8466 181.594C20.7823 181.426 20.949 181.374 21.2171 181.476C21.4843 181.579 24.8968 181.683 28.7997 181.706C36.2321 181.752 36.6563 181.828 36.6563 183.119C36.6563 184.181 37.1935 185.042 37.8555 185.042C38.3918 185.042 38.4259 184.664 38.461 178.391L38.498 171.739L37.8097 171.79C37.25 171.832 37.0804 172.083 36.899 173.143C36.4954 175.507 37.1204 175.389 25.8474 175.217C15.9424 175.067 14.7207 174.963 14.7168 174.272C14.709 172.571 13.3596 170.939 12.7619 171.906ZM340.57 172.629C340.489 172.838 340.482 173.489 340.554 174.076C340.626 174.663 340.774 178.568 340.886 182.757C341.194 194.467 341.138 194.308 345.341 195.392C348.05 196.089 348.144 196.093 348.546 195.544C349.138 194.736 349.132 194.727 347.267 193.753C344.259 192.182 343.879 191.647 343.628 188.639C343.137 182.746 343.192 182.683 348.961 182.566L352.77 182.489L352.859 185.212C352.981 188.931 352.901 189.147 351.234 189.614C349.995 189.961 349.853 190.09 349.935 190.798C350.038 191.683 349.496 191.614 355.512 191.499L358.711 191.439V190.565C358.711 189.771 358.595 189.676 357.456 189.523C355.624 189.277 355.512 189.05 355.512 185.559V182.453L359.976 182.352L364.44 182.253L364.656 185.144C364.963 189.229 364.13 190.757 361.565 190.814C361.118 190.825 360.869 191.069 360.768 191.598C360.576 192.602 360.489 192.574 364.196 192.7L367.395 192.809L367.365 191.743C367.227 186.826 366.892 177.913 366.748 175.353L366.572 172.214L365.767 172.307C365.055 172.389 364.937 172.571 364.752 173.877C364.461 175.926 365.024 175.828 351.533 176.161C342.174 176.391 343.032 176.582 342.529 174.151C342.139 172.264 341.038 171.408 340.57 172.629ZM4.66455 179.566C4.66455 179.737 5.20568 180.464 5.86868 181.184C8.5431 184.085 8.35103 188.481 5.49038 189.856C4.44518 190.358 4.44323 191.023 5.48258 192.108C8.25743 195.003 11.8172 189.304 10.2552 184.469C9.38258 181.768 4.66455 177.63 4.66455 179.566ZM341.082 199.13C340.915 200.009 340.69 201.894 340.582 203.318C340.336 206.584 340.132 208.286 339.969 208.449C339.899 208.519 339.975 208.825 340.137 209.128C340.3 209.432 340.313 209.752 340.167 209.841C339.627 210.176 339.959 211.388 340.617 211.483C341.159 211.56 341.354 211.292 341.836 209.807L342.41 208.04L344.082 207.945C345.689 207.854 360.48 209.231 362.672 209.675C364.078 209.96 364.336 211.705 363.218 213.364C360.283 217.718 351.378 216.002 351.794 211.162C351.929 209.586 351.687 209.395 350.553 210.189C349.529 210.906 349.571 214.989 350.626 217.254C353.901 224.287 362.912 223.863 365.194 216.569C365.457 215.731 365.892 212.578 366.162 209.562C366.433 206.548 366.765 203.285 366.9 202.313C367.237 199.882 365.621 198.716 365.238 201.113C364.843 203.582 364.143 203.701 355.817 202.714C354.476 202.555 351.322 202.211 348.808 201.95C343.335 201.379 342.868 201.197 342.868 199.637C342.868 196.963 341.565 196.593 341.082 199.13ZM37.1954 206.991C36.9673 209.363 37.0784 209.333 23.2471 210.581C16.0087 211.234 15.5124 211.162 14.9791 209.382C14.3063 207.138 13.0603 207.667 13.2953 210.096C13.3967 211.142 13.6394 213.919 13.8354 216.264C14.2147 220.81 14.321 221.153 15.2589 220.855C15.7094 220.713 15.9112 220.286 16.0604 219.162C16.2534 217.711 16.2992 217.653 17.3932 217.474C18.0172 217.372 18.8703 217.23 19.2896 217.157C21.3449 216.801 33.1502 215.808 35.3283 215.808C37.7814 215.808 37.8116 215.816 38.0154 216.645C38.3216 217.892 39.0372 218.856 39.5198 218.67C40.0005 218.486 40.3603 217.091 39.9859 216.86C39.8523 216.777 39.7519 216.471 39.7646 216.182C39.787 215.676 39.2166 209.434 38.9027 206.745C38.6599 204.662 37.4012 204.844 37.1954 206.991ZM31.3903 218.682C26.4773 220.434 25.5851 224.051 27.9924 232.454C28.1962 233.166 28.203 233.164 23.0121 234.332C20.4625 234.905 20.0696 234.777 19.1365 233.068C17.7744 230.575 17.0568 231.907 17.9655 235.243C18.3614 236.699 19.0546 239.434 19.5041 241.318C20.2529 244.456 20.3816 244.745 21.0241 244.745C21.6705 244.745 21.7271 244.614 21.7271 243.107C21.7271 241.292 21.9016 241.065 23.7073 240.54C25.2059 240.104 27.5098 239.496 28.125 239.374C28.3766 239.324 31.3903 238.587 34.8223 237.736C42.3678 235.864 42.6603 235.867 43.5826 237.815C44.2456 239.216 45.0432 239.687 45.3591 238.864C45.6136 238.203 42.4994 225.923 41.5683 223.911C39.5432 219.538 35.2191 217.317 31.3903 218.682ZM344.086 222.234C339.214 223.514 336.159 227.243 333.916 234.651C332.731 238.571 333.576 241.299 336.758 243.819C338.909 245.523 339.892 244.619 338.179 242.512C334.857 238.424 335.039 234.37 338.691 231.157C345.211 225.42 360.436 231.348 358.994 239.063C358.206 243.281 356.54 245.068 353.164 245.319C350.115 245.545 349.425 246.603 351.855 247.324C352.526 247.523 353.554 247.895 354.141 248.153C357.347 249.556 357.115 249.597 357.929 247.487C358.219 246.732 358.645 245.704 358.876 245.202C361.995 238.422 361.613 230.658 357.969 226.728C354.536 223.028 348.502 221.074 344.086 222.234ZM38.6667 224.376C40.255 224.775 40.9219 225.74 40.9219 227.638C40.9219 229.554 40.3505 229.937 35.3751 231.343C30.0623 232.846 29.9054 232.838 29.5553 231.07C28.8368 227.437 31.0861 225.072 36.0469 224.242C36.4661 224.172 36.9195 224.096 37.0541 224.073C37.1896 224.05 37.915 224.187 38.6667 224.376ZM45.0354 240.785C44.9321 240.952 44.9311 241.226 45.0335 241.392C46.1849 243.254 45.3991 244.675 42.4799 246.014C39.5793 247.345 37.874 248.141 33.8658 250.038C26.3037 253.618 26.0999 253.658 24.6813 251.855C23.603 250.485 22.627 251.281 23.4528 252.855C25.0547 255.913 26.3281 258.578 27.073 260.432C28.4 263.735 29.5436 264.083 29.1985 261.079C28.9645 259.043 28.9118 259.096 33.0917 257.104C37.2608 255.115 36.8922 255.047 38.3313 258.072C38.9485 259.37 39.862 261.223 40.3603 262.189C41.6668 264.717 41.5322 265.03 38.6365 266.199C37.2958 266.741 35.7602 267.413 35.224 267.691C33.7381 268.465 32.8479 268.339 31.9792 267.228C30.4085 265.221 29.7679 266.384 31.0266 268.962C32.9045 272.806 34.8281 277.026 34.8281 277.299C34.8281 277.805 35.6003 278.224 36.0361 277.954C36.3891 277.736 36.3988 277.477 36.0907 276.45C35.5457 274.634 35.9611 274.128 39.2702 272.582C40.8439 271.847 42.2703 271.246 42.44 271.246C42.6106 271.246 42.75 271.109 42.75 270.941C42.75 270.774 42.8904 270.637 43.062 270.637C43.2336 270.637 45.7589 269.54 48.6731 268.2C54.7503 265.405 55.4143 265.293 56.6632 266.847C57.5661 267.974 58.8219 268.089 58.4914 267.016C58.312 266.432 53.6544 256.338 53.3102 255.786C52.6472 254.723 51.956 255.949 52.111 257.912L52.2621 259.823L48.3787 261.651C46.2425 262.656 44.3354 263.518 44.1423 263.564C43.9483 263.612 43.3409 262.653 42.7919 261.433C42.242 260.212 41.3226 258.235 40.7483 257.039C39.3073 254.041 39.203 254.221 43.5086 252.263C48.1486 250.153 49.9962 250.159 50.0528 252.284C50.0645 252.729 50.6378 252.773 51.2647 252.377C51.6264 252.148 51.3183 251.295 49.535 247.584C48.3426 245.101 47.1356 242.487 46.8538 241.775C46.3536 240.515 45.4927 240.046 45.0354 240.785ZM330.692 246.305C330.284 247.164 328.95 249.701 327.725 251.942C326.501 254.184 325.5 256.141 325.5 256.289C325.5 257.068 326.537 256.842 327.462 255.862C328.589 254.668 328.765 254.626 330.179 255.216C330.946 255.536 331.346 256.018 331.884 257.272C332.271 258.172 333.118 260.043 333.766 261.428C334.414 262.814 334.946 264.064 334.946 264.208C334.946 264.492 336.883 268.919 337.407 269.829C338.07 270.983 337.222 270.716 332.564 268.303C326.181 264.995 325.748 264.758 325.264 264.316C325.035 264.106 324.703 263.936 324.529 263.936C324.319 263.936 324.281 263.274 324.418 261.996C324.582 260.468 324.535 260.021 324.197 259.892C323.53 259.635 323.304 259.93 321.805 263.021C321.034 264.613 319.766 266.989 318.99 268.301C317.432 270.934 317.344 271.282 318.085 271.894C318.491 272.229 318.618 272.234 318.723 271.92C319.076 270.873 320.411 269.723 321.276 269.723C322.225 269.723 322.673 269.923 327.328 272.422C328.92 273.277 331.456 274.598 332.965 275.359C339.774 278.79 340.107 279.126 339.342 281.805C338.898 283.358 340.308 283.246 341.016 281.673C341.372 280.881 341.79 280.026 341.944 279.775C342.099 279.524 342.661 278.496 343.193 277.491C343.726 276.486 344.285 275.507 344.436 275.317C345.545 273.925 346.207 271.999 345.704 271.627C345.264 271.302 345.06 271.403 344.3 272.325C343.596 273.179 343.243 273.376 342.605 273.269C340.692 272.945 340.71 272.974 337.036 264.545C336.708 263.79 336.24 262.786 335.997 262.312C335.754 261.837 335.554 261.288 335.553 261.093C335.552 260.897 335.367 260.385 335.143 259.955C333.762 257.309 334.236 257.102 337.535 258.907C338.541 259.457 340.46 260.482 341.801 261.185C343.142 261.888 344.973 262.897 345.87 263.427L347.501 264.392L347.339 265.992C347.201 267.353 347.264 267.639 347.758 267.904C348.327 268.208 351.703 262.381 351.703 261.093C351.703 260.865 351.972 260.435 352.301 260.138C353.639 258.927 354.426 256.8 353.647 256.5C353.186 256.324 351.704 257.637 351.703 258.224C351.702 259.165 348.17 257.982 344.458 255.798C343.238 255.08 342.174 254.492 342.092 254.492C341.803 254.492 333.901 250.15 333.061 249.529C331.929 248.693 331.775 248.067 332.356 246.677C332.806 245.6 332.803 245.492 332.311 245.132C331.541 244.569 331.503 244.597 330.692 246.305ZM58.5938 269.571C58.2857 269.941 58.3373 270.314 58.8677 271.548C59.7052 273.493 59.4917 274.969 57.5291 280.799C56.4585 283.978 56.1319 285.369 56.2079 286.434L56.3083 287.847L55.2427 287.933C54.6557 287.98 53.1601 288.221 51.9189 288.469C50.6777 288.717 49.5935 288.85 49.5097 288.766C49.4258 288.683 49.1918 288.751 48.99 288.917C48.2402 289.54 46.4687 288.431 46.066 287.087C45.6428 285.675 45.1319 285.559 43.2073 286.435C41.4591 287.229 41.0633 287.793 41.5166 288.837C42.6184 291.372 45.3523 291.887 50.9741 290.617C55.6463 289.563 56.9431 289.58 58.5177 290.721C60.026 291.813 60.2425 292.135 59.7433 292.546C59.5298 292.72 58.6016 293.549 57.6802 294.389C56.7578 295.228 55.8394 295.915 55.6385 295.916C55.4367 295.918 55.1627 296.098 55.0292 296.318C54.1858 297.699 52.0447 298.149 51.1292 297.138C50.4866 296.428 49.9689 296.365 49.4931 296.937C49.2308 297.254 49.5175 297.748 50.7733 299.146C51.6644 300.135 53.3941 302.179 54.6187 303.687C57.0718 306.709 57.0435 306.684 57.649 306.301C58.0117 306.071 58.0068 305.859 57.6129 304.859C56.8115 302.824 57.0367 302.456 61.2614 298.911C64.004 296.609 64.0947 296.598 65.0278 298.425C65.9423 300.219 65.5172 301.939 62.486 308.711C61.274 311.417 61.7372 313.635 63.8412 315.205L64.6319 315.796L66.4883 314.669C68.1419 313.665 68.7971 312.977 68.101 312.977C67.8134 312.977 66.7126 312.177 65.7103 311.239C64.7207 310.314 64.7928 309.259 66.0769 305.833C66.6736 304.241 67.2401 302.451 67.3366 301.855L67.5131 300.772L69.3753 300.984C71.5642 301.233 71.0816 301.235 74.8919 300.96C76.5659 300.838 78.044 300.671 78.1786 300.588C79.2764 299.91 83.5586 300.739 84.8125 301.873C85.2503 302.27 85.3653 302.256 85.8138 301.762C86.2915 301.233 86.2136 301.079 84.3708 298.929C80.582 294.508 79.9043 294.315 72.781 295.629C67.7627 296.554 66.6356 296.604 65.6323 295.952C65.1487 295.637 65.6371 295.16 70.0442 291.635C73.0023 289.268 73.2227 289.207 74.8304 290.299C75.8639 291.002 76.019 291.031 76.447 290.603C76.874 290.176 76.7054 289.885 74.6881 287.585C73.4615 286.185 71.7026 284.07 70.7812 282.883C69.0418 280.645 68.6606 280.396 68.063 281.117C67.787 281.449 67.8397 281.761 68.3009 282.518C69.0692 283.783 68.3915 286.172 67.2635 286.172C67.0577 286.172 63.2679 289.394 62.1233 290.542C61.5607 291.108 61.5266 291.109 61.1336 290.572C60.4882 289.69 60.6286 288.94 62.2802 284.453C64.7782 277.67 65.253 275.206 64.0645 275.206C63.9046 275.206 63.771 275.034 63.7691 274.825C63.7661 274.616 63.3888 273.998 62.9305 273.453C62.4723 272.908 61.4866 271.708 60.7397 270.788C59.2568 268.959 59.1515 268.898 58.5938 269.571ZM311.79 279.073C310.532 280.857 308.647 283.394 307.6 284.708C305.543 287.29 305.476 287.438 306.131 287.982C306.482 288.272 306.791 288.132 307.718 287.258C309.733 285.357 309.303 285.145 320.853 293.739C327.389 298.6 327.338 298.452 323.769 302.239C323.222 302.82 322.251 302.701 320.266 301.81C318.561 301.045 318.43 301.029 317.943 301.522C317.455 302.013 317.593 302.206 320.299 304.841C323.143 307.609 323.177 307.631 323.498 306.878C324.153 305.352 333.867 292.125 335.911 289.979C336.55 289.309 337.071 288.555 337.07 288.304C337.068 287.762 332.594 283.126 332.074 283.126C331.024 283.126 331.062 283.841 332.227 285.976C333.798 288.857 333.786 289.016 331.746 291.881C330.489 293.646 330.83 293.803 322.85 287.799C313.028 280.409 313.074 280.467 314.841 277.561C315.425 276.6 315.232 275.807 314.418 275.821C314.229 275.824 313.046 277.287 311.79 279.073ZM299.86 293.394C299.299 293.981 295.789 297.336 292.06 300.849C288.332 304.362 285.281 307.374 285.281 307.542C285.281 308.048 288.021 313.396 288.4 313.631C289.423 314.263 289.792 313.374 289.328 311.388C288.423 307.505 288.927 306.443 293.338 302.939C295.006 301.615 295.24 301.702 298.336 304.821C301.646 308.155 301.603 307.909 299.269 310.138C296.967 312.336 296.659 312.453 295.054 311.734C293.223 310.916 292.006 312.018 293.593 313.058C293.976 313.309 295.232 314.614 296.385 315.959C298.218 318.098 298.551 318.361 299.041 318.055C299.719 317.631 299.767 316.844 299.145 316.328C298.146 315.5 298.6 314.42 300.911 312.124L303.135 309.915L305.634 312.381C307.008 313.736 308.133 314.943 308.133 315.062C308.133 315.181 308.407 315.513 308.743 315.8C309.575 316.514 309.554 316.573 307.841 318.359C304.653 321.682 304.097 321.904 301.898 320.735C298.909 319.146 298.635 320.123 301.182 323.281C302.218 324.567 303.112 325.678 303.169 325.752C303.224 325.825 305.428 323.763 308.063 321.168C310.699 318.573 314.07 315.331 315.554 313.964C318.019 311.692 318.211 311.434 317.77 310.993C317.329 310.552 317.187 310.577 316.143 311.287C314.192 312.612 314.512 312.843 305.924 303.887C301.418 299.187 299.906 297.422 299.906 296.858C299.906 296.239 301.088 294.076 301.75 293.482C301.844 293.398 301.687 293.104 301.401 292.827C300.915 292.358 300.813 292.396 299.86 293.394ZM82.8167 304.585C74.8187 307.212 70.1261 316.635 73.4528 323.389C77.5556 331.718 88.5282 333.778 94.737 327.387L95.7939 326.298L97.4407 327.432C99.923 329.141 100.055 329.866 98.1875 331.559C98.0949 331.642 97.547 332.396 96.9688 333.233C94.8062 336.368 94.0457 336.819 92.3775 335.956C91.6589 335.584 91.3606 335.559 91.0213 335.841C90.2988 336.44 90.485 336.666 93.1 338.383C96.2141 340.427 98.6877 342.144 100.034 343.197C101.572 344.401 102.236 343.49 100.916 341.988C99.3955 340.256 99.7709 339.368 105.082 332.136C105.656 331.354 106.125 330.563 106.125 330.375C106.125 330.188 106.234 330.035 106.369 330.035C106.502 330.035 107.446 328.836 108.465 327.37C111.649 322.791 112.254 322.403 114.282 323.639L115.279 324.247L115.65 323.434C115.945 322.784 115.941 322.594 115.629 322.491C115.076 322.306 109.697 318.641 107.401 316.885C105.28 315.261 105.147 315.213 104.604 315.867C104.295 316.241 104.396 316.514 105.176 317.402C106.502 318.911 106.409 319.768 104.633 322.344C102.704 325.144 101.216 326.989 100.887 326.989C100.685 326.989 97.7507 325.104 97.3598 324.723C97.3149 324.679 97.703 323.737 98.2207 322.63C102.888 312.658 93.1088 301.203 82.8167 304.585ZM91.4386 307.313C96.3438 309.865 94.5108 319.227 87.8438 325.67C81.9157 331.399 75.4671 327.367 78.1406 319.604C80.9924 311.322 87.5308 305.28 91.4386 307.313ZM277.043 312.929C272.833 315.662 269.724 317.547 269.428 317.547C269.265 317.547 269.133 317.665 269.133 317.81C269.133 317.954 268.637 318.263 268.031 318.495L266.929 318.917L267.534 319.663C268.103 320.363 268.186 320.38 268.865 319.94C271.508 318.227 271.527 318.248 279.632 331.482C281.094 333.868 282.415 335.898 282.567 335.992C283.312 336.452 282.724 337.289 280.912 338.349C278.295 339.879 277.693 339.828 275.654 337.9C273.087 335.472 272.574 336.224 274.294 339.895C274.975 341.347 275.531 342.645 275.531 342.776C275.531 343.943 276.387 344.132 277.395 343.188C277.962 342.657 278.523 342.222 278.641 342.221C278.76 342.221 279.376 341.875 280.011 341.452C285.637 337.72 293.924 332.684 295.336 332.138C296.965 331.509 296.964 331.438 295.31 328.192C294.654 326.905 294.118 325.636 294.118 325.373C294.118 324.686 293.673 324.505 292.799 324.837C292.099 325.103 292.061 325.215 292.31 326.285C292.881 328.75 292.674 330.59 291.72 331.492C290.573 332.579 288.518 333.697 288.145 333.439C287.829 333.22 284.672 328.298 284.672 328.025C284.672 327.936 284.347 327.426 283.949 326.893C282.635 325.127 277.889 317.111 277.635 316.227C277.415 315.46 277.549 315.185 278.797 313.852C281.073 311.419 280.134 310.924 277.043 312.929Z" fill="#105A9F"/>
</svg>
